<?xml version="1.0" encoding="utf-8"?>
<!-- Generator: Adobe Illustrator 16.0.0, SVG Export Plug-In . SVG Version: 6.00 Build 0)  -->
<!DOCTYPE svg PUBLIC "-//W3C//DTD SVG 1.1//EN" "http://www.w3.org/Graphics/SVG/1.1/DTD/svg11.dtd">
<svg version="1.1" id="Шар_1" xmlns="http://www.w3.org/2000/svg" xmlns:xlink="http://www.w3.org/1999/xlink" x="0px" y="0px"
	 width="272.8px" height="79.2px" viewBox="0 0 272.8 79.2" style="enable-background:new 0 0 272.8 79.2;" xml:space="preserve">
<g>
	<polyline style="fill:#646569;" points="129.8,63.4 129.8,70.9 127.6,70.9 127.6,63.4 123.7,63.4 123.7,61.5 133.8,61.5 
		133.8,63.4 129.8,63.4 	"/>
	<polyline style="fill:#646569;" points="146,70.9 146,61.5 155.5,61.5 155.5,63.3 148.2,63.3 148.2,65.3 155.3,65.3 155.3,67 
		148.2,67 148.2,69.1 155.5,69.1 155.5,70.9 146,70.9 	"/>
	<polyline style="fill:#646569;" points="168.2,70.9 168.2,61.5 170.4,61.5 170.4,69 176.2,69 176.2,70.9 168.2,70.9 	"/>
	<polyline style="fill:#646569;" points="188.8,70.9 188.8,61.5 198.4,61.5 198.4,63.3 191.1,63.3 191.1,65.3 198.2,65.3 198.2,67 
		191.1,67 191.1,69.1 198.4,69.1 198.4,70.9 188.8,70.9 	"/>
	<path style="fill:#646569;" d="M218.5,70.9h-4.2c-2.6,0-3.4-0.8-3.4-3.3v-2.7c0-2.7,0.9-3.5,3.6-3.5h3.7c2.2,0,3.6,0.6,3.6,3.3
		h-2.2c0-1-0.5-1.4-1.8-1.4H215c-1.5,0-1.8,0.3-1.8,1.7v2.3c0,1.4,0.5,1.7,1.8,1.7h2.9c1.3,0,1.8-0.2,1.8-1.4h2.3
		C221.9,70.1,221.3,70.9,218.5,70.9"/>
	<path style="fill:#646569;" d="M241.9,70.9h-4.1c-2.5,0-3.5-0.9-3.5-3.2v-2.9c0-2.6,0.9-3.3,3.5-3.3h4.1c2.3,0,3.4,0.7,3.4,3.3v2.9
		C245.3,70,244.5,70.9,241.9,70.9 M243.1,64.9c0-1.4-0.5-1.7-1.8-1.7h-2.9c-1.4,0-1.8,0.4-1.8,1.7v2.5c0,1.2,0.4,1.6,1.8,1.6h3
		c1.4,0,1.8-0.3,1.8-1.6V64.9z"/>
	<polyline style="fill:#646569;" points="270.4,70.9 270.4,63.4 270.1,63.4 266.9,70.9 263.7,70.9 260.5,63.4 260.2,63.4 
		260.2,70.9 258,70.9 258,61.5 262.1,61.5 265.2,69 265.4,69 268.5,61.5 272.6,61.5 272.6,70.9 270.4,70.9 	"/>
	<polyline style="fill:#646569;" points="142.9,52.1 134.6,52.1 122.3,4.7 132.3,4.7 138,30.2 138.9,36 139.8,30.2 145.2,4.7 
		155,4.7 142.9,52.1 	"/>
	<path style="fill:#646569;" d="M166.8,52.5c-7.8,0-12.7-4.1-12.7-12.7V30c0-8.6,4.9-12.6,12.7-12.6c7.8,0,12.4,4.1,12.4,12.5v7.7
		H163v2.3c0,4.3,1.4,5.4,3.6,5.4c2.5,0,3.5-1.1,3.6-3.9h9C178.8,48.7,174.6,52.5,166.8,52.5 M170.2,29.3c0-3.9-1.2-5-3.6-5
		c-2.3,0-3.7,1.1-3.7,5.1v2.1h7.3V29.3z"/>
	<rect x="183.9" y="4.7" style="fill:#646569;" width="9.3" height="47.4"/>
	<path style="fill:#646569;" d="M210.5,52.1c-7.2,0-10.3-3.2-10.3-9.3V24.3h-3.3v-6.5h3.3V8.1h9.3v9.7h4.6v6.5h-4.6V42
		c0,1.9,0.8,2.7,2.5,2.7h2.1v7.3H210.5"/>
	<path style="fill:#646569;" d="M230.4,52.5c-7.8,0-12.7-4.1-12.7-12.1V29.5c0-8.1,4.9-12.1,12.7-12.1c7.8,0,12.7,4.1,12.7,12.1
		v10.9C243.1,48.5,238.1,52.5,230.4,52.5 M233.8,29.7c0-3.9-1.3-4.9-3.4-4.9c-2.1,0-3.3,1.1-3.3,4.9v10.6c0,3.9,1.2,4.9,3.3,4.9
		c2.1,0,3.4-1,3.4-4.9V29.7z"/>
	<path style="fill:#646569;" d="M263.5,52.1V28.6c0-2.5-0.8-3.3-3-3.3c-2.2,0-3.4,0.9-3.4,3.3v23.5h-9.3V17.8h9.3v2.9
		c1.3-1.9,3.5-3.3,7.1-3.3c5.6,0,8.6,3.4,8.6,8.9v25.7H263.5"/>
	<path style="fill:#C41235;" d="M70.9,0C55.4,0,42.2,9.9,37.4,23.8c5.6,0.9,9.8,5.8,9.8,11.6c0,5.9-4.3,10.7-9.8,11.6
		c4.8,13.9,18,23.8,33.5,23.8c19.6,0,35.4-15.9,35.4-35.4C106.3,15.9,90.4,0,70.9,0 M70.9,47.2c-6.5,0-11.8-5.3-11.8-11.8
		c0-6.5,5.3-11.8,11.8-11.8c6.5,0,11.8,5.3,11.8,11.8C82.7,42,77.4,47.2,70.9,47.2z"/>
	<path style="fill:#C41235;" d="M11.8,47.2C5.3,47.2,0,42,0,35.4c0-6.5,5.3-11.8,11.8-11.8c6.5,0,11.8,5.3,11.8,11.8
		C23.6,42,18.3,47.2,11.8,47.2"/>
</g>
</svg>
