<?xml version="1.0" encoding="utf-8"?>
<!-- Generator: Adobe Illustrator 16.0.0, SVG Export Plug-In . SVG Version: 6.00 Build 0)  -->
<!DOCTYPE svg PUBLIC "-//W3C//DTD SVG 1.1//EN" "http://www.w3.org/Graphics/SVG/1.1/DTD/svg11.dtd">
<svg version="1.1" id="Шар_1" xmlns="http://www.w3.org/2000/svg" xmlns:xlink="http://www.w3.org/1999/xlink" x="0px" y="0px"
	 width="18.6px" height="18.5px" viewBox="0 0 18.6 18.5" style="enable-background:new 0 0 18.6 18.5;" xml:space="preserve">
<g>
	<path style="fill:#C41235;stroke:#C41235;stroke-width:0.5;stroke-miterlimit:10;" d="M14.8,18.3c-0.7,0-1.7-0.2-2.6-0.6
		c-2.2-0.8-4.6-2.4-6.7-4.6C3.3,11,1.7,8.7,0.9,6.5c-0.7-2-0.7-3.6,0-4.4C1,2,1.1,1.9,1.2,1.8c0.7-0.7,1.4-1.5,2.5-1.5
		c0.7,0,1.4,0.5,2.1,1.3c2.1,2.6,1.1,3.5,0.1,4.5L5.6,6.3c-0.2,0.2-0.5,1,2.6,4.1c1,1,1.9,1.7,2.6,2.2c0.4,0.3,1.2,0.7,1.5,0.4
		l0.2-0.2c1.1-1.1,2-2,4.5,0.1c0.9,0.7,1.3,1.4,1.3,2.1c0,1-0.8,1.8-1.5,2.5c-0.1,0.1-0.2,0.2-0.3,0.3
		C16.1,18.1,15.5,18.3,14.8,18.3z M3.6,0.9c-0.7,0-1.4,0.7-2,1.3C1.5,2.3,1.4,2.4,1.3,2.5c-0.6,0.6-0.5,2,0.1,3.7
		c0.8,2.1,2.4,4.4,4.4,6.5c2.1,2.1,4.4,3.6,6.5,4.4c1.7,0.6,3.2,0.7,3.7,0.1c0.1-0.1,0.2-0.2,0.4-0.3c0.6-0.6,1.3-1.3,1.3-2
		c0-0.5-0.4-1.1-1.1-1.6c-2.1-1.7-2.7-1.1-3.7-0.1l-0.2,0.2c-0.5,0.5-1.2,0.4-2.3-0.3c-0.7-0.5-1.6-1.2-2.7-2.3
		C5.2,8.3,4.4,6.7,5.2,5.9l0.2-0.2c1-1,1.6-1.6-0.1-3.7C4.7,1.3,4.1,0.9,3.6,0.9C3.6,0.9,3.6,0.9,3.6,0.9z"/>
</g>
</svg>
