<?xml version="1.0" encoding="utf-8"?>
<!-- Generator: Adobe Illustrator 16.0.0, SVG Export Plug-In . SVG Version: 6.00 Build 0)  -->
<!DOCTYPE svg PUBLIC "-//W3C//DTD SVG 1.1//EN" "http://www.w3.org/Graphics/SVG/1.1/DTD/svg11.dtd">
<svg version="1.1" id="Шар_1" xmlns="http://www.w3.org/2000/svg" xmlns:xlink="http://www.w3.org/1999/xlink" x="0px" y="0px"
	 width="51px" height="44.9px" viewBox="0 0 51 44.9" style="enable-background:new 0 0 51 44.9;" xml:space="preserve">
<path style="fill:#C41235;stroke:#C41235;stroke-miterlimit:10;" d="M41.2,0.6c-4.1,0-7.6,2.7-8.8,6.5h-27c-2.7,0-4.8,2.2-4.8,4.8
	v27.7c0,2.7,2.2,4.8,4.8,4.8H40c2.7,0,4.8-2.2,4.8-4.8V18.3c3.3-1.4,5.5-4.7,5.5-8.5C50.4,4.7,46.3,0.6,41.2,0.6z M32,8.9
	c0,0.3,0,0.6,0,0.9c0,2.2,0.8,4.1,2,5.7l-10.8,10L4.3,9.1C4.7,9,5,8.9,5.4,8.9H32z M43,39.6c0,1.6-1.3,3-3,3H5.4c-1.6,0-3-1.3-3-3
	V11.9c0-0.5,0.2-1,0.4-1.5l19.7,17.2c0.2,0.2,0.4,0.2,0.7,0.2c0.2,0,0.5-0.1,0.7-0.3L35.4,17c1.6,1.3,3.6,2.1,5.8,2.1
	c0.6,0,1.3-0.1,1.8-0.2V39.6z M43.6,16.8c-0.2,0.1-0.4,0.1-0.6,0.2c0,0-0.1,0-0.1,0c-0.2,0-0.3,0.1-0.5,0.1c-0.1,0-0.2,0-0.3,0
	c-0.1,0-0.2,0-0.4,0c-0.2,0-0.4,0-0.7,0c-4.1,0-7.4-3.3-7.4-7.4c0-0.5,0.1-1.1,0.2-1.6c0.7-3.3,3.7-5.7,7.2-5.7
	c4.1,0,7.4,3.3,7.4,7.4C48.6,13,46.5,15.8,43.6,16.8z"/>
</svg>
