<?xml version="1.0" encoding="utf-8"?>
<!-- Generator: Adobe Illustrator 16.0.0, SVG Export Plug-In . SVG Version: 6.00 Build 0)  -->
<!DOCTYPE svg PUBLIC "-//W3C//DTD SVG 1.1//EN" "http://www.w3.org/Graphics/SVG/1.1/DTD/svg11.dtd">
<svg version="1.1" id="Шар_1" xmlns="http://www.w3.org/2000/svg" xmlns:xlink="http://www.w3.org/1999/xlink" x="0px" y="0px"
	 width="106.304px" height="70.866px" viewBox="0 0 106.304 70.866" enable-background="new 0 0 106.304 70.866"
	 xml:space="preserve">
<path fill="#9D4D4C" d="M70.869,0c-15.494,0-28.656,9.945-33.47,23.8c5.585,0.938,9.845,5.78,9.845,11.633
	c0,5.854-4.26,10.698-9.845,11.638c4.813,13.852,17.976,23.796,33.47,23.796c19.567,0,35.435-15.862,35.435-35.434
	C106.304,15.864,90.437,0,70.869,0 M70.869,47.242c-6.524,0-11.813-5.285-11.813-11.81c0-6.521,5.288-11.812,11.813-11.812
	c6.522,0,11.81,5.29,11.81,11.812C82.679,41.957,77.392,47.242,70.869,47.242z"/>
<path fill="#9D4D4C" d="M11.813,47.242C5.291,47.245,0,41.957,0,35.433c0-6.521,5.291-11.812,11.813-11.812
	s11.812,5.29,11.812,11.812C23.625,41.957,18.336,47.242,11.813,47.242"/>
</svg>
