<?xml version="1.0" encoding="utf-8"?>
<!-- Generator: Adobe Illustrator 16.0.0, SVG Export Plug-In . SVG Version: 6.00 Build 0)  -->
<!DOCTYPE svg PUBLIC "-//W3C//DTD SVG 1.1//EN" "http://www.w3.org/Graphics/SVG/1.1/DTD/svg11.dtd">
<svg version="1.1" id="Шар_1" xmlns="http://www.w3.org/2000/svg" xmlns:xlink="http://www.w3.org/1999/xlink" x="0px" y="0px"
	 width="85.1px" height="85.1px" viewBox="0 0 85.1 85.1" style="enable-background:new 0 0 85.1 85.1;" xml:space="preserve">
<g>
	<g>
		<path style="fill:#5E518C;" d="M77.8,0H7.1C3.2,0,0,3.2,0,7.1v43.8v5.7c0,3.9,3.2,7.1,7.1,7.1h23.8l-2.3,12.7H23
			c-1.6,0-3.1,0.9-3.8,2.3c-0.7,1.3-0.6,2.9,0.2,4.1c0.8,1.3,2.1,2,3.6,2h38.9c1.5,0,2.8-0.8,3.6-2c0.8-1.3,0.8-2.8,0.2-4.1
			c-0.7-1.4-2.2-2.3-3.8-2.3h-5.6L54,63.6h23.8c3.9,0,7.1-3.2,7.1-7.1v-5.7V7.1C84.8,3.2,81.7,0,77.8,0z M55.2,79.2h6.7
			c0.5,0,1,0.3,1.3,0.8c0.3,0.6,0.1,1.2-0.1,1.4C63,81.5,62.6,82,61.9,82H23c-0.7,0-1.1-0.5-1.2-0.7c-0.1-0.2-0.4-0.7-0.1-1.4
			c0.2-0.5,0.7-0.8,1.3-0.8h6.7H41c0.8,0,1.4-0.6,1.4-1.4s-0.6-1.4-1.4-1.4h-9.6l2.3-12.7h17.4l2.3,12.7h-4c-0.8,0-1.4,0.6-1.4,1.4
			s0.6,1.4,1.4,1.4H55.2L55.2,79.2z M82,56.6c0,2.3-1.9,4.2-4.2,4.2H52.3H32.5H7.1c-2.3,0-4.2-1.9-4.2-4.2v-4.2H82V56.6z M82,49.5
			H2.8V7.1c0-2.3,1.9-4.2,4.2-4.2h70.7c2.3,0,4.2,1.9,4.2,4.2V49.5z"/>
	</g>
</g>
<g>
	<g>
		<path style="fill:#5E518C;" d="M45.3,55.2h-5.7c-0.8,0-1.4,0.6-1.4,1.4s0.6,1.4,1.4,1.4h5.7c0.8,0,1.4-0.6,1.4-1.4
			S46,55.2,45.3,55.2z"/>
	</g>
</g>
<g>
	<path style="fill:none;stroke:#5E518C;stroke-width:1.7;stroke-linecap:round;stroke-linejoin:round;stroke-miterlimit:10;" d="
		M50.7,9.6c-7.2,0-13.4,4.6-15.7,11.1c2.6,0.4,4.6,2.7,4.6,5.4c0,2.7-2,5-4.6,5.4c2.3,6.5,8.4,11.1,15.7,11.1
		c9.2,0,16.6-7.4,16.6-16.6S59.9,9.6,50.7,9.6 M50.7,31.7c-3.1,0-5.5-2.5-5.5-5.5c0-3.1,2.5-5.5,5.5-5.5c3,0,5.5,2.5,5.5,5.5
		C56.2,29.2,53.8,31.7,50.7,31.7z"/>
	<path style="fill:none;stroke:#5E518C;stroke-width:1.7;stroke-linecap:round;stroke-linejoin:round;stroke-miterlimit:10;" d="
		M23.1,31.7c-3,0-5.5-2.5-5.5-5.5c0-3.1,2.5-5.5,5.5-5.5c3.1,0,5.5,2.5,5.5,5.5C28.6,29.2,26.1,31.7,23.1,31.7"/>
</g>
</svg>
