<?xml version="1.0" encoding="utf-8"?>
<!-- Generator: Adobe Illustrator 16.0.0, SVG Export Plug-In . SVG Version: 6.00 Build 0)  -->
<!DOCTYPE svg PUBLIC "-//W3C//DTD SVG 1.1//EN" "http://www.w3.org/Graphics/SVG/1.1/DTD/svg11.dtd">
<svg version="1.1" id="Шар_1" xmlns="http://www.w3.org/2000/svg" xmlns:xlink="http://www.w3.org/1999/xlink" x="0px" y="0px"
	 width="77.5px" height="103.5px" viewBox="0 0 77.5 103.5" style="enable-background:new 0 0 77.5 103.5;" xml:space="preserve">
<path style="fill:#5B528A;" d="M62.2,17.4c-1.7,0-3.4,0.3-5.1,0.9l-0.5,0.2V8.3c0-4.6-3.7-8.3-8.3-8.3h-40C3.7,0,0,3.7,0,8.3v73
	c0,4.6,3.7,8.3,8.3,8.3h12.5V90c0,0.4,0.1,0.7,0.4,1l6.6,6.6v6h2.7V97c0-0.4-0.1-0.7-0.4-1l-6.6-6.6l0-8l1.6-4.9
	c0-0.1,0.1-0.3,0.1-0.4V51.8c0-1.2,0.9-2.1,2.1-2.1s2.1,0.9,2.1,2.1v25.7h2.7V67.4c0-1.2,0.9-2.1,2.1-2.1s2.1,0.9,2.1,2.1v10.1h2.7
	V67.4c0-1.2,0.9-2.1,2.1-2.1s2.1,0.9,2.1,2.1v10.1h2.7v-8.3c0-1.2,0.9-2.1,2.1-2.1s2.1,0.9,2.1,2.1v8.3h2.7v-4.8
	c0-1.2,0.9-2.1,2.1-2.1s2.1,0.9,2.1,2.1l0,10.3l-5.1,15.4c0,0.1-0.1,0.3-0.1,0.4v4.8h2.7l0-4.7L60,83.5c0-0.1,0.1-0.3,0.1-0.4V72.6
	c0-2-1.3-3.9-3.2-4.5L56.6,68V46.8l0.5,0.2c1.7,0.6,3.4,0.9,5.1,0.9c8.4,0,15.3-6.8,15.3-15.3S70.6,17.4,62.2,17.4z M2.7,8.3
	c0-3.1,2.5-5.6,5.6-5.6h40c3.1,0,5.6,2.5,5.6,5.6v2.1H2.7V8.3z M20.9,80.9c0,0.1-0.1,0.3-0.1,0.4v5.6H8.3c-3.1,0-5.6-2.5-5.6-5.6
	v-5.6h19.9L20.9,80.9z M27.4,46.9c-2.7,0-4.8,2.2-4.8,4.8v2.1h-3.9c-1.2,0-2.1-0.9-2.1-2.1v-7c0-1.2,0.9-2.1,2.1-2.1h17.4
	c1.2,0,2.1,0.9,2.1,2.1v7c0,1.2-0.9,2.1-2.1,2.1h-3.9v-2.1C32.3,49.1,30.1,46.9,27.4,46.9z M53.9,68l-0.4,0.2l-0.4,0.2l-0.1-0.5
	c-0.6-2.1-2.5-3.6-4.7-3.6c-0.8,0-1.6,0.2-2.4,0.6l-0.3,0.2l-0.2-0.3c-0.9-1.4-2.4-2.3-4.1-2.3c-1.2,0-2.3,0.4-3.2,1.3l-0.3,0.2
	l-0.3-0.2c-0.9-0.8-2-1.3-3.2-1.3c-0.5,0-1,0.1-1.6,0.3L32.3,63v-6.4h3.9c2.7,0,4.8-2.2,4.8-4.8v-7c0-2.7-2.2-4.8-4.8-4.8H18.7
	c-2.7,0-4.8,2.2-4.8,4.8v7c0,2.7,2.2,4.8,4.8,4.8h3.9V73H2.7V13.2h51.2v6.7L53.7,20c-0.5,0.3-0.9,0.7-1.4,1.1l-0.1,0.1
	c-0.5,0.4-0.8,0.8-1.2,1.1l-0.2,0.2c-0.4,0.4-0.7,0.9-1,1.3c-0.7,1-1.3,2.1-1.7,3.2l0,0.1c-0.2,0.5-0.4,1-0.5,1.5l-0.1,0.4
	c-0.1,0.4-0.2,0.9-0.3,1.4l0,0.2c0,0.1,0,0.2,0,0.2c-0.1,0.7-0.1,1.2-0.1,1.8s0,1.1,0.1,1.8c0,0.1,0,0.2,0,0.2l0,0.2
	c0.1,0.5,0.2,0.9,0.3,1.4c0,0.1,0.1,0.2,0.1,0.4c0.1,0.5,0.3,1,0.5,1.5l0.1,0.2c0.4,1.1,1,2.2,1.7,3.2c0.3,0.5,0.7,0.9,1.1,1.4
	l0.2,0.2c0.4,0.4,0.8,0.8,1.1,1.1l0.2,0.2c0.5,0.4,1,0.8,1.4,1.1l0.2,0.1V68z M62.2,45.2c-2.2,0-4.4-0.6-6.3-1.7
	c-0.4-0.2-0.8-0.5-1.3-0.8l-0.1-0.1c-0.8-0.6-1.6-1.4-2.2-2.2l-0.1-0.1c-0.3-0.4-0.6-0.9-0.9-1.3C50.8,38,50.4,37,50.1,36l-0.1-0.2
	c-0.1-0.4-0.2-0.8-0.3-1.2c0-0.2,0-0.3-0.1-0.4c-0.1-0.5-0.1-1-0.1-1.5c0-0.5,0-1,0.1-1.5l0.1-0.3c0.1-0.5,0.2-0.9,0.3-1.2l0.1-0.2
	c0.3-1,0.7-2,1.2-2.9c0.3-0.4,0.6-0.9,0.9-1.3l0.1-0.1c0.6-0.8,1.4-1.6,2.2-2.2l0.1-0.1c0.4-0.3,0.8-0.6,1.3-0.8
	c1.9-1.1,4.1-1.7,6.3-1.7c6.9,0,12.5,5.6,12.5,12.5S69.1,45.2,62.2,45.2z"/>
<path style="fill:#5B528A;" d="M27.4,28.8c0.9,0,2.5,0.2,4.1,1.2l1.6-2.2c-2.2-1.6-4.5-1.8-5.7-1.8c-2.6,0-4.6,1-5.7,1.8l1.6,2.2
	C24.2,29.5,25.6,28.8,27.4,28.8z"/>
<path style="fill:#5B528A;" d="M27.4,21.8c1.9,0,5.7,0.4,9.3,3l1.6-2.2c-4.3-3.1-8.7-3.5-10.9-3.5c-5.2,0-9,2.1-10.9,3.5l1.6,2.2
	C19.8,23.6,23.1,21.8,27.4,21.8z"/>
<rect x="26.1" y="33" style="fill:#5B528A;" width="2.7" height="2.7"/>
<g>
	<path style="fill:#5B528A;" d="M57.1,32.4h10.4c0.5,0,1-0.4,1-1s-0.4-1-1-1h-1.5c0.2-0.3,0.4-0.7,0.5-1c0.4-1.1,0.2-2.4-0.5-3.4
		c-1.1-1.6-2.7-2-3.9-2c-1.1,0-2.4,0.3-3.4,0.9c-0.4,0.2-0.6,0.6-0.5,1c0.1,0.4,0.5,0.8,1,0.8c0.2,0,0.3,0,0.5-0.1
		c1.2-0.7,2.5-0.8,3.6-0.5c0.8,0.3,1.5,1,1.6,1.9c0.1,0.8-0.3,1.6-1.2,2.5h-6.4c-0.5,0-1,0.4-1,1S56.5,32.4,57.1,32.4z"/>
	<path style="fill:#5B528A;" d="M67.4,33.6H57.1c-0.5,0-1,0.4-1,1s0.4,1,1,1h1.6c-0.5,1.7-0.2,3.3,0.9,4.5c0.8,0.8,1.9,1.2,3.3,1.2
		c1.1,0,2.4-0.3,3.5-0.9c0.5-0.2,0.5-0.6,0.5-1c-0.1-0.4-0.5-0.8-1-0.8c-0.2,0-0.3,0-0.4,0.1c-0.8,0.4-1.7,0.6-2.5,0.6
		c-1.2,0-2.1-0.5-2.4-1.4c-0.3-0.8-0.2-1.6,0.2-2.4h6.8c0.5,0,1-0.4,1-1c0-0.3-0.1-0.5-0.3-0.7C67.9,33.7,67.7,33.6,67.4,33.6z"/>
</g>
</svg>
