<?xml version="1.0" encoding="utf-8"?>
<!-- Generator: Adobe Illustrator 16.0.0, SVG Export Plug-In . SVG Version: 6.00 Build 0)  -->
<!DOCTYPE svg PUBLIC "-//W3C//DTD SVG 1.1//EN" "http://www.w3.org/Graphics/SVG/1.1/DTD/svg11.dtd">
<svg version="1.1" id="Шар_1" xmlns="http://www.w3.org/2000/svg" xmlns:xlink="http://www.w3.org/1999/xlink" x="0px" y="0px"
	 width="33.369px" height="33.372px" viewBox="0 0 33.369 33.372" enable-background="new 0 0 33.369 33.372" xml:space="preserve">
<g>
	<path fill="#5B528A" d="M31.065,2.307c-3.077-3.077-8.083-3.075-11.161,0l-5.58,5.58c-0.475,0.475-0.475,1.243,0,1.717
		c0.474,0.475,1.243,0.475,1.716,0l5.581-5.58c1.026-1.026,2.398-1.592,3.862-1.592c1.465,0,2.837,0.565,3.864,1.593
		c1.026,1.026,1.592,2.398,1.592,3.863s-0.565,2.836-1.592,3.863l-7.297,7.298c-2.131,2.13-5.597,2.13-7.728,0
		c-0.474-0.474-1.243-0.474-1.717,0c-0.475,0.475-0.475,1.243,0,1.717c1.539,1.539,3.56,2.308,5.581,2.308s4.042-0.769,5.581-2.308
		l7.298-7.298c1.485-1.484,2.304-3.467,2.304-5.58C33.369,5.773,32.551,3.792,31.065,2.307z"/>
	<path fill="#5B528A" d="M16.47,24.629l-4.722,4.722c-1.026,1.027-2.398,1.593-3.863,1.593c-1.464,0-2.837-0.565-3.863-1.593
		c-2.131-2.13-2.131-5.597,0-7.727l6.869-6.869c1.026-1.025,2.398-1.592,3.864-1.592c1.464,0,2.836,0.566,3.862,1.592
		c0.475,0.475,1.243,0.475,1.717,0c0.474-0.474,0.474-1.242,0-1.717c-3.076-3.076-8.083-3.076-11.161,0l-6.869,6.869
		C0.818,21.393,0,23.374,0,25.488c0,2.112,0.818,4.095,2.304,5.579c1.485,1.486,3.467,2.305,5.58,2.305
		c2.114,0,4.096-0.818,5.581-2.305l4.722-4.722c0.474-0.474,0.474-1.243,0-1.717C17.712,24.154,16.944,24.154,16.47,24.629z"/>
</g>
</svg>
