<?xml version="1.0" encoding="utf-8"?>
<!-- Generator: Adobe Illustrator 16.0.0, SVG Export Plug-In . SVG Version: 6.00 Build 0)  -->
<!DOCTYPE svg PUBLIC "-//W3C//DTD SVG 1.1//EN" "http://www.w3.org/Graphics/SVG/1.1/DTD/svg11.dtd">
<svg version="1.1" id="Шар_1" xmlns="http://www.w3.org/2000/svg" xmlns:xlink="http://www.w3.org/1999/xlink" x="0px" y="0px"
	 width="85.1px" height="85.1px" viewBox="0 0 85.1 85.1" style="enable-background:new 0 0 85.1 85.1;" xml:space="preserve">
<path style="fill:#5B528A;" d="M85.1,53.5c-0.1-0.4-0.3-0.7-0.7-0.9l-0.1,0c-0.9-0.4-1.8-0.9-2.7-1.5c-1.7-1-3.6-2.2-6.2-2.8
	l-0.3-0.1l0.1-0.3c1-3.8,1.5-7.6,1.5-11.4V3.9c0-0.4-0.2-0.7-0.5-0.9c-0.3-0.2-0.7-0.2-1-0.1C74.9,3,68,5.7,59.9,5.7
	c-4.4,0-7.1-1.6-9.8-3.1C47.9,1.2,45.7,0,42.9,0c-2.8,0-5,1.2-7.3,2.6c-2.6,1.5-5.4,3.1-9.8,3.1c-8.2,0-15.1-2.7-15.2-2.8
	c-0.3-0.1-0.7-0.1-1,0.1C9.3,3.2,9.1,3.6,9.1,3.9v32.7c0,4.2,0.6,8.4,1.9,12.7l0.1,0.4l-0.5,0c-3-0.1-5.9-0.6-8.5-1.3l-0.2,0
	c-0.1,0-0.2,0-0.3,0c-0.4,0-0.7,0.2-0.9,0.5c-0.3,0.4-0.3,0.9,0,1.2L6,57.8l-5.1,5.1c-0.3,0.3-0.4,0.7-0.3,1.1
	c0.1,0.4,0.4,0.7,0.8,0.8l0.1,0c3.3,0.9,6.7,1.4,10.1,1.4c2.4,0,4.8-0.2,7.2-0.7l0.2,0l0.1,0.2c5.8,7.7,13.6,14.1,23.2,18.9
	c0.3,0.1,0.7,0.1,1,0c10.1-5.1,18.1-11.8,23.9-19.9l0.2-0.3l0.3,0.2c0.1,0.1,0.2,0.1,0.2,0.1l0.1,0c0.1,0,0.2,0,0.2,0.1l0.2,0l0.1,0
	c0,0,0.1,0,0.1,0c1-0.2,1.9-0.3,2.8-0.3c2.9,0,4.8,1.1,6.9,2.5c1.1,0.7,2.2,1.4,3.5,1.9l0.2,0.1c0.4,0.2,0.9,0,1.2-0.3
	c0.3-0.3,0.4-0.8,0.2-1.2l-4.2-8.4l0.1,0l5.6-4.4C85,54.3,85.2,53.9,85.1,53.5z M11.3,5.5l0.4,0.1c2.6,0.8,8,2.2,14.1,2.2
	c5,0,8.1-1.8,10.9-3.4c2.1-1.2,3.9-2.3,6.2-2.3c2.3,0,4.1,1,6.2,2.3c2.8,1.6,5.9,3.4,10.9,3.4C66,7.9,71.4,6.4,74,5.6l0.4-0.1v31.1
	c0,3.7-0.5,7.5-1.5,11.2l-0.1,0.3l-0.4,0c-0.6,0-1.2,0-1.9,0.1l-0.1,0c-0.3,0-0.5,0-0.8,0.1l-0.5,0.1l0.1-0.5
	c1.1-3.7,1.6-7.5,1.6-11.2V11c0-0.3-0.1-0.6-0.4-0.8C70.3,10,70,9.9,69.7,10c-0.3,0.1-0.6,0.1-1,0.2l-0.3,0.1
	c-2.6,0.5-5.5,1.1-8.5,1.1c-5.9,0-9.8-2.2-12.6-3.9c-1.8-1-3.1-1.8-4.4-1.8c-1.3,0-2.6,0.8-4.4,1.8c-2.8,1.6-6.7,3.9-12.6,3.9
	c-3,0-5.9-0.6-8.5-1.1l-0.1,0c-0.4-0.1-0.8-0.2-1.1-0.2c-0.3-0.1-0.7,0-0.9,0.2c-0.3,0.2-0.4,0.5-0.4,0.8v25.6c0,4.1,0.7,8.3,2,12.4
	l0.1,0.4l-0.4,0c-1,0.1-1.9,0.2-2.9,0.2l-0.3,0l-0.1-0.2c-1.3-4.3-2-8.6-2-12.8V5.5z M68.8,12.4v24.2c0,3.5-0.5,7-1.5,10.4l-0.1,0.4
	L66.4,47c-0.6-0.3-1.3-0.6-1.8-0.8c-1-0.4-2.1-0.8-3.2-1.1C61.2,45.1,61,45,60.8,45c-0.2-0.1-0.4-0.1-0.6-0.2l-0.5-0.1
	c-0.4-0.1-0.7-0.2-1.2-0.2L58,44.4c-0.4-0.1-0.7-0.1-1.1-0.2l-0.3,0c-0.4,0-0.9-0.1-1.4-0.1c-0.1,0-0.3,0-0.4,0c-0.5,0-0.9,0-1.3,0
	l-0.2,0c-4.3,0-8.5,1-12.4,2.9c-3.6,1.8-7.1,2.7-10.2,2.7c-6.4,0-9.6-3.7-9.7-3.9c-0.2-0.3-0.5-0.4-0.8-0.4l-0.1,0
	c-0.3,0-0.7,0.2-0.8,0.5l-0.8,1.2l-0.2-0.7c-0.9-3.3-1.3-6.6-1.3-9.8V12.4l0.4,0.1c2.7,0.6,5.5,1.1,8.5,1.1c6.5,0,10.7-2.4,13.7-4.2
	c1.6-1,2.6-1.5,3.3-1.5c0.7,0,1.7,0.5,3.3,1.5c3,1.8,7.2,4.2,13.7,4.2c3,0,5.7-0.5,8.5-1.1L68.8,12.4z M19.8,62.9
	c-2.6,0.6-5.4,1-8.1,1c-2.5,0-4.9-0.3-7.3-0.8L3.8,63l4.3-4.3c0.4-0.4,0.4-0.9,0.1-1.4l-4.1-6.2l0.8,0.1c2.4,0.4,4.9,0.6,7.4,0.6
	c1.3,0,2.5-0.1,3.7-0.2l0.4,0l-0.1,0.4c-0.4,2.4,0.1,4.9,1.3,7.1l0.1,0.1c0.2,0.3,0.3,0.5,0.4,0.7h0l0,0.1c0.1,0.2,0.3,0.4,0.5,0.6
	l0.1,0.2c0.2,0.2,0.4,0.4,0.6,0.6c0.1,0.1,0.1,0.1,0.2,0.2c0,0,0.1,0.1,0.1,0.1l0.4,0.4l0.2,0.7L19.8,62.9z M65.3,63.5
	C59.9,71.1,52.4,77.3,43,82.2l-0.2,0.1l-0.2-0.1c-8.6-4.5-15.7-10.2-21-17l-0.3-0.4l0.4-0.1c0.1,0,0.3-0.1,0.4-0.2
	c0.1-0.1,0.2-0.2,0.2-0.2l0.2-0.2l0.3,0.1c0.9,0.5,2,0.9,3,1.2l0.1,0l0.1,0.1c4.5,5.2,9.9,9.7,16.3,13.2c0.3,0.2,0.7,0.2,1.1,0
	c7.6-4.2,14.1-10,18.9-16.6l0.1-0.2l0.2,0.1c0.9,0.3,1.7,0.7,2.5,1l0.4,0.2L65.3,63.5z M29.5,66l0.7,0l0-0.5l0.1,0.5l0.2,0
	c0.2,0,0.4,0,0.6,0l0.3,0c0.1,0,0.2,0,0.3,0c0.3,0,0.6,0,1-0.1l0.1,0c0.1,0,0.2,0,0.3,0c0.3,0,0.6-0.1,1-0.2l0.2,0
	c0.1,0,0.1,0,0.2,0c0.4-0.1,0.7-0.2,1-0.2l0.2-0.1c0.1,0,0.1,0,0.2,0c0.3-0.1,0.7-0.2,1-0.3l0.2-0.1c0.1,0,0.2,0,0.2-0.1
	c0.3-0.1,0.7-0.2,1-0.4l0.2-0.1c0.1,0,0.2-0.1,0.3-0.1c0.4-0.1,0.7-0.3,1.1-0.4l0.2-0.1c0.1,0,0.1,0,0.2-0.1c0.5-0.2,1-0.5,1.5-0.7
	c0.9-0.4,1.8-0.8,2.7-1.2c2.8-1,5.7-1.5,8.7-1.5l0.1,0c0.4,0,0.8,0,1.3,0l0.3,0c0.4,0,0.8,0.1,1.2,0.1c0.2,0,0.3,0,0.5,0.1
	c0.4,0.1,0.8,0.1,1.1,0.2c0.2,0,0.4,0.1,0.6,0.1c0.4,0.1,0.7,0.1,1,0.2l0.7,0.2L60,61.7C55.6,67.5,49.8,72.6,43,76.4l-0.2,0.1
	l-0.2-0.1c-4.8-2.7-9.1-6-12.7-9.8L29.5,66z M69.3,60.2c-0.2,0.4-0.4,0.6-0.6,0.9l-0.7,1l-0.4-0.2c-1.7-0.9-5.3-2.6-9.8-3.3l-0.2,0
	c-0.3,0-0.6-0.1-0.9-0.1c-0.1,0-0.2,0-0.3,0l-0.2,0c-0.2,0-0.4,0-0.5-0.1c-0.1,0-0.2,0-0.3,0l-0.9-0.1c-0.3,0-0.7,0-1.1,0l-0.1,0
	c-4.3,0-8.5,1-12.4,2.9c-2.7,1.3-5.3,2.2-7.8,2.5c-0.8,0.1-1.6,0.2-2.4,0.2c-0.1,0-0.1,0-0.2,0l-0.1,0c-0.3,0-0.6,0-1,0
	c-0.2,0-0.3,0-0.5,0l-0.1,0c-0.2,0-0.4,0-0.6-0.1l-0.2,0c-0.1,0-0.2,0-0.3-0.1l-0.1,0c-0.3-0.1-0.6-0.1-0.9-0.2l-0.2-0.1
	c-0.4-0.1-0.7-0.2-1.1-0.3c-0.4-0.1-0.7-0.3-1-0.4c-0.8-0.4-1.6-0.9-2.3-1.4c-0.2-0.1-0.3-0.2-0.5-0.4l-0.1-0.1
	c-0.4-0.3-0.6-0.6-0.7-0.7c0,0-0.1-0.1-0.1-0.1c-0.2-0.2-0.3-0.3-0.5-0.5l-0.1-0.2c-0.1-0.1-0.2-0.3-0.3-0.4l-0.1-0.2
	c-0.1-0.2-0.2-0.3-0.3-0.5l-0.1-0.1c-0.1-0.2-0.2-0.4-0.3-0.6c-0.9-2-1.1-4.3-0.4-6.5l0-0.1c0.1-0.2,0.1-0.4,0.2-0.6l0-0.1
	c0.1-0.2,0.2-0.5,0.3-0.7c0.1-0.2,0.3-0.4,0.4-0.7l0.5-0.7l0.3,0.2c1.2,1,3.2,2.3,6.1,2.9c1.3,0.3,2.6,0.5,3.9,0.5l0.2,0
	c3.5,0,7.3-1,11.2-2.9c3.6-1.8,7.5-2.7,11.4-2.7c0.4,0,0.9,0,1.4,0c0.1,0,0.2,0,0.3,0l0.3,0c0.2,0,0.4,0,0.7,0.1
	c0.2,0,0.3,0,0.5,0.1l0.3,0c0.1,0,0.2,0,0.4,0c0.3,0,0.5,0.1,0.8,0.1l0.4,0.1c0.3,0.1,0.6,0.1,0.8,0.2l0.3,0.1
	c0.3,0.1,0.6,0.1,0.9,0.2l0.2,0c0.3,0.1,0.6,0.2,0.9,0.3l0.1,0c2.1,0.7,3.8,1.4,4.8,2l0.3,0.2c0.5,0.3,0.8,0.5,1,0.6l0.1,0.1
	C70.2,53.1,70.9,57.2,69.3,60.2z M81.9,54l-4.9,3.8c-0.4,0.3-0.5,0.9-0.3,1.3l3.1,6.1l-1-0.6c-2.1-1.3-4.2-2.4-7.4-2.4h-0.7l0.3-0.6
	c0.1-0.2,0.3-0.5,0.4-0.7l0,0h0l0-0.1c0.1-0.2,0.2-0.5,0.3-0.7c0.3-0.9,0.5-1.7,0.6-2.7c0-0.6,0-1.3,0-1.9c0-0.3-0.1-0.5-0.1-0.8
	l0-0.2c0-0.2-0.1-0.4-0.1-0.7L72,53.6c-0.1-0.3-0.2-0.5-0.2-0.8c0-0.1-0.1-0.1-0.1-0.2l-0.1-0.1c-0.1-0.2-0.1-0.3-0.2-0.4
	c-0.1-0.2-0.1-0.3-0.2-0.5l-0.1-0.2c-0.1-0.2-0.2-0.4-0.3-0.5l-0.3-0.5l0.7,0c0.3,0,0.7,0,1.1,0l0.1,0c0.2,0,0.4,0,0.7,0l0.1,0
	c0.1,0,0.2,0,0.3,0c3,0.3,5,1.5,6.9,2.7c0.4,0.2,0.7,0.4,1.1,0.7L81.9,54L81.9,54z"/>
<text transform="matrix(1 0 0 1 24.0786 40.3809)"><tspan x="0" y="0" style="fill:#5B528A; font-family:'GothamPro-Medium'; font-size:30.0187;">9</tspan><tspan x="18.8" y="0" style="fill:#5B528A; font-family:'GothamPro-Medium'; font-size:30.0187;">3</tspan></text>
</svg>
