<?xml version="1.0" encoding="UTF-8" standalone="no"?>
<svg
   xmlns:dc="http://purl.org/dc/elements/1.1/"
   xmlns:cc="http://creativecommons.org/ns#"
   xmlns:rdf="http://www.w3.org/1999/02/22-rdf-syntax-ns#"
   xmlns:svg="http://www.w3.org/2000/svg"
   xmlns="http://www.w3.org/2000/svg"
   viewBox="0 0 97.65625 33.853748"
   height="33.853748"
   width="97.65625"
   xml:space="preserve"
   version="1.1"
   id="svg2"><metadata
     id="metadata8"><rdf:RDF><cc:Work
         rdf:about=""><dc:format>image/svg+xml</dc:format><dc:type
           rdf:resource="http://purl.org/dc/dcmitype/StillImage" /></cc:Work></rdf:RDF></metadata><defs
     id="defs6"><clipPath
       id="clipPath16"
       clipPathUnits="userSpaceOnUse"><path
         id="path18"
         d="m 0,27.083 78.125,0 L 78.125,0 0,0 0,27.083 Z" /></clipPath></defs><g
     transform="matrix(1.25,0,0,-1.25,0,33.85375)"
     id="g10"><g
       id="g12"><g
         clip-path="url(#clipPath16)"
         id="g14"><g
           transform="translate(56.9863,19.4326)"
           id="g20"><path
             id="path22"
             style="fill:#5b528a;fill-opacity:1;fill-rule:nonzero;stroke:none"
             d="m 0,0 0,-11.817 -4.921,4.921 0,1.939 L 0,0 Z m -7.866,-4.311 0,-3.161 0,-9.051 -28.018,0 0,21.264 28.018,0 0,-9.052 z m 1.472,11.961 -30.926,0 c -0.79,0 -1.473,-0.646 -1.473,-1.472 l 0,-24.138 c 0,-0.79 0.647,-1.473 1.473,-1.473 l 30.926,0 c 0.79,0 1.473,0.647 1.473,1.473 l 0,6.969 5.352,-5.353 c 0.288,-0.287 0.646,-0.43 1.042,-0.43 0.179,0 0.395,0.036 0.574,0.107 0.539,0.216 0.898,0.755 0.898,1.365 l 0,18.858 C 2.945,4.131 2.586,4.669 2.047,4.921 1.509,5.137 0.862,5.028 0.467,4.598 l -5.352,-5.353 0,6.933 C -4.921,7.004 -5.567,7.65 -6.394,7.65" /></g><g
           transform="translate(78.125,13.791)"
           id="g24"><path
             id="path26"
             style="fill:#5b528a;fill-opacity:1;fill-rule:nonzero;stroke:none"
             d="m 0,0 c 0,-1.726 -1.399,-3.125 -3.125,-3.125 -1.726,0 -3.125,1.399 -3.125,3.125 0,1.726 1.399,3.125 3.125,3.125 C -1.399,3.125 0,1.726 0,0" /></g><g
           transform="translate(6.25,13.791)"
           id="g28"><path
             id="path30"
             style="fill:#5b528a;fill-opacity:1;fill-rule:nonzero;stroke:none"
             d="m 0,0 c 0,-1.726 -1.399,-3.125 -3.125,-3.125 -1.726,0 -3.125,1.399 -3.125,3.125 0,1.726 1.399,3.125 3.125,3.125 C -1.399,3.125 0,1.726 0,0" /></g></g></g></g></svg>