<?xml version="1.0" encoding="utf-8"?>
<!-- Generator: Adobe Illustrator 16.0.0, SVG Export Plug-In . SVG Version: 6.00 Build 0)  -->
<!DOCTYPE svg PUBLIC "-//W3C//DTD SVG 1.1//EN" "http://www.w3.org/Graphics/SVG/1.1/DTD/svg11.dtd">
<svg version="1.1" id="Шар_1" xmlns="http://www.w3.org/2000/svg" xmlns:xlink="http://www.w3.org/1999/xlink" x="0px" y="0px"
	 width="85.1px" height="85.1px" viewBox="0 0 85.1 85.1" style="enable-background:new 0 0 85.1 85.1;" xml:space="preserve">
<path style="fill:#5B528A;" d="M83.9,68.4h-1.7V10.9h2.9V0H0v10.9h2.9v57.5H1.2C0.5,68.4,0,69,0,69.6c0,0.6,0.5,1.2,1.2,1.2h40.2
	v3.1c0,0.1,0,0.1,0,0.2l0,0.2l-0.2,0.1c-2.4,0.6-4.1,2.8-4.1,5.3c0,3,2.4,5.5,5.5,5.5c3,0,5.5-2.4,5.5-5.5c0-2.5-1.7-4.7-4.1-5.3
	l-0.2-0.1l0-0.2c0,0,0-0.1,0-0.1l0-3.1h40.2c0.6,0,1.2-0.5,1.2-1.2C85.1,69,84.5,68.4,83.9,68.4z M2.4,8.6V2.4h80.4v6.2H2.4z
	 M45.6,79.6c0,1.7-1.4,3.1-3.1,3.1c-1.7,0-3.1-1.4-3.1-3.1s1.4-3.1,3.1-3.1C44.2,76.5,45.6,77.9,45.6,79.6z M79.9,68.4H5.2V10.9
	h74.7V68.4z"/>
<circle style="fill:#5B528A;" cx="29.7" cy="31.1" r="1.2"/>
<circle style="fill:#5B528A;" cx="29.7" cy="36.8" r="1.2"/>
<circle style="fill:#5B528A;" cx="29.7" cy="42.5" r="1.2"/>
<circle style="fill:#5B528A;" cx="29.7" cy="48.2" r="1.2"/>
<circle style="fill:#5B528A;" cx="29.7" cy="53.9" r="1.2"/>
<path style="fill:#5B528A;" d="M73.9,57h-4.5V25.7h-8.6v-4.3H49.9v10h-8.6v8.6h-6.2V25.7H24.2v8.6h-8.6V57h-4.5
	c-0.6,0-1.2,0.5-1.2,1.2s0.5,1.2,1.2,1.2h62.7c0.6,0,1.2-0.5,1.2-1.2S74.5,57,73.9,57z M24.2,57H18V36.6h6.2V57z M32.8,32.8h-0.3
	c-0.6,0-1.2,0.5-1.2,1.2s0.5,1.2,1.2,1.2h0.3v3.4h-0.3c-0.6,0-1.2,0.5-1.2,1.2s0.5,1.2,1.2,1.2h0.3v3.4h-0.3c-0.6,0-1.2,0.5-1.2,1.2
	s0.5,1.2,1.2,1.2h0.3v3.4h-0.3c-0.6,0-1.2,0.5-1.2,1.2s0.5,1.2,1.2,1.2h0.3v3.4h-0.3c-0.6,0-1.2,0.5-1.2,1.2V57H28v-0.3
	c0-0.6-0.5-1.2-1.2-1.2h-0.3v-3.4h0.3c0.6,0,1.2-0.5,1.2-1.2s-0.5-1.2-1.2-1.2h-0.3v-3.4h0.3c0.6,0,1.2-0.5,1.2-1.2
	s-0.5-1.2-1.2-1.2h-0.3v-3.4h0.3c0.6,0,1.2-0.5,1.2-1.2s-0.5-1.2-1.2-1.2h-0.3v-3.4h0.3c0.6,0,1.2-0.5,1.2-1.2s-0.5-1.2-1.2-1.2
	h-0.3v-3.4h0.3c0.6,0,1.2-0.5,1.2-1.2V28h3.4v0.3c0,0.6,0.5,1.2,1.2,1.2h0.3V32.8z M41.4,57h-6.2V42.3h6.2V57z M49.9,57h-6.2V33.7
	h6.2V57z M58.5,57h-6.2V23.7h6.2V57z M67,57h-6.2V28H67V57z"/>
</svg>
