<?xml version="1.0" encoding="utf-8"?>
<!-- Generator: Adobe Illustrator 16.0.0, SVG Export Plug-In . SVG Version: 6.00 Build 0)  -->
<!DOCTYPE svg PUBLIC "-//W3C//DTD SVG 1.1//EN" "http://www.w3.org/Graphics/SVG/1.1/DTD/svg11.dtd">
<svg version="1.1" id="Шар_1" xmlns="http://www.w3.org/2000/svg" xmlns:xlink="http://www.w3.org/1999/xlink" x="0px" y="0px"
	 width="157.524px" height="107px" viewBox="0 0 157.524 107" enable-background="new 0 0 157.524 107" xml:space="preserve">
<path fill-rule="evenodd" clip-rule="evenodd" fill="#C11235" d="M132.022,59c-3.037,0-5.5-2.463-5.5-5.5s2.463-5.5,5.5-5.5
	c0.027,0,0.053,0.004,0.08,0.004C129.351,21.039,106.573,0,78.882,0C51.188,0,28.409,21.041,25.659,48.008
	c2.963,0.084,5.342,2.509,5.342,5.492s-2.379,5.408-5.342,5.492C28.409,85.959,51.188,107,78.882,107
	c27.691,0,50.469-21.039,53.221-48.004C132.075,58.996,132.05,59,132.022,59z"/>
<path fill-rule="evenodd" clip-rule="evenodd" fill="#C11235" d="M157.524,53.5c0-3.037-2.463-5.5-5.5-5.5s-5.5,2.463-5.5,5.5
	s2.463,5.5,5.5,5.5S157.524,56.537,157.524,53.5z"/>
<path fill-rule="evenodd" clip-rule="evenodd" fill="#C11235" d="M11,53.5c0-3.037-2.463-5.5-5.5-5.5S0,50.463,0,53.5
	S2.463,59,5.5,59S11,56.537,11,53.5z"/>
<g>
	<g>
		<g>
			<path fill="#FFFFFF" d="M98.925,33.456c-5.354-5.354-12.473-8.303-20.044-8.303s-14.689,2.948-20.044,8.303
				c-5.354,5.354-8.303,12.472-8.303,20.044c0,5.438,1.544,10.721,4.465,15.277c2.843,4.436,6.85,7.988,11.587,10.271l0.722-1.496
				C58.127,73.127,52.195,63.686,52.195,53.5c0-14.715,11.971-26.686,26.686-26.686s26.686,11.971,26.686,26.686
				c0,10.187-5.933,19.627-15.113,24.052l0.722,1.496c4.736-2.282,8.744-5.834,11.588-10.271c2.921-4.557,4.465-9.84,4.465-15.277
				C107.228,45.928,104.278,38.811,98.925,33.456z"/>
			<path fill="#FFFFFF" d="M99.898,53.439c0-11.59-9.428-21.018-21.018-21.018S57.863,41.85,57.863,53.439
				c0,7.74,4.235,14.832,11.054,18.51l0.788-1.463c-6.28-3.387-10.182-9.918-10.182-17.047c0-10.674,8.684-19.357,19.357-19.357
				s19.357,8.684,19.357,19.357c0,7.13-3.901,13.662-10.182,17.047l0.788,1.463C95.663,68.273,99.898,61.181,99.898,53.439z"/>
			<path fill="#FFFFFF" d="M93.286,54.301c0-7.943-6.462-14.405-14.405-14.405s-14.405,6.462-14.405,14.405
				c0,4.836,2.407,9.324,6.44,12.006l0.919-1.383c-3.568-2.373-5.699-6.344-5.699-10.623c0-7.027,5.718-12.744,12.745-12.744
				s12.745,5.717,12.745,12.744c0,4.279-2.131,8.25-5.699,10.623l0.919,1.383C90.879,63.625,93.286,59.137,93.286,54.301z"/>
			<path fill="#FFFFFF" d="M84.739,53.5c0-3.23-2.628-5.858-5.858-5.858s-5.858,2.628-5.858,5.858c0,2.314,1.351,4.32,3.305,5.271
				l-2.469,23.076h10.045l-2.468-23.076C83.389,57.82,84.739,55.814,84.739,53.5z M82.056,80.186h-6.35l2.236-20.903
				c0.007,0.001,0.013,0.002,0.02,0.003c0.034,0.006,0.069,0.01,0.104,0.015c0.055,0.008,0.109,0.015,0.165,0.021
				c0.036,0.005,0.073,0.008,0.109,0.012c0.057,0.006,0.113,0.01,0.17,0.013c0.034,0.003,0.068,0.005,0.102,0.007
				c0.08,0.003,0.159,0.005,0.239,0.006c0.01,0,0.02,0,0.029,0s0.02,0,0.03,0c0.079-0.001,0.159-0.003,0.238-0.006
				c0.034-0.002,0.068-0.004,0.102-0.007c0.057-0.003,0.113-0.007,0.17-0.013c0.037-0.004,0.073-0.007,0.11-0.012
				c0.055-0.006,0.109-0.013,0.164-0.021c0.035-0.005,0.07-0.009,0.105-0.015c0.006-0.001,0.013-0.002,0.019-0.003L82.056,80.186z
				 M80.198,57.484c-0.03,0.01-0.062,0.02-0.092,0.029c-0.02,0.006-0.038,0.012-0.058,0.017c-0.148,0.043-0.299,0.077-0.45,0.104
				c-0.007,0-0.014,0.002-0.02,0.003c-0.053,0.009-0.104,0.017-0.157,0.022c-0.008,0.002-0.016,0.002-0.023,0.004
				c-0.054,0.006-0.107,0.012-0.161,0.017c-0.004,0-0.008,0.001-0.013,0.001c-0.229,0.019-0.459,0.019-0.688,0
				c-0.004,0-0.009-0.001-0.013-0.001c-0.054-0.005-0.107-0.011-0.16-0.017c-0.008-0.002-0.017-0.002-0.024-0.004
				c-0.052-0.006-0.104-0.014-0.156-0.022c-0.007-0.001-0.014-0.003-0.02-0.003c-0.152-0.027-0.303-0.062-0.451-0.104
				c-0.019-0.005-0.038-0.011-0.058-0.017c-0.03-0.01-0.061-0.02-0.092-0.029c-1.671-0.555-2.88-2.131-2.88-3.984
				c0-2.314,1.883-4.197,4.197-4.197s4.197,1.883,4.197,4.197C83.078,55.354,81.869,56.93,80.198,57.484z"/>
		</g>
	</g>
</g>
</svg>
