<?xml version="1.0" encoding="utf-8"?>
<!-- Generator: Adobe Illustrator 16.0.0, SVG Export Plug-In . SVG Version: 6.00 Build 0)  -->
<!DOCTYPE svg PUBLIC "-//W3C//DTD SVG 1.1//EN" "http://www.w3.org/Graphics/SVG/1.1/DTD/svg11.dtd">
<svg version="1.1" id="Шар_1" xmlns="http://www.w3.org/2000/svg" xmlns:xlink="http://www.w3.org/1999/xlink" x="0px" y="0px"
	 width="140px" height="94.738px" viewBox="0 0 140 94.738" enable-background="new 0 0 140 94.738" xml:space="preserve">
<g>
	<path fill-rule="evenodd" clip-rule="evenodd" fill="#C11235" d="M117.336,52.254c-2.7,0-4.889-2.189-4.889-4.889
		s2.188-4.889,4.889-4.889c0.024,0,0.046,0.004,0.071,0.004C114.961,18.516,94.718-0.184,70.106-0.184
		c-24.613,0-44.857,18.701-47.302,42.668c2.633,0.074,4.748,2.229,4.748,4.881s-2.115,4.807-4.748,4.882
		c2.444,23.966,22.688,42.667,47.302,42.667c24.611,0,44.854-18.699,47.301-42.664C117.382,52.25,117.36,52.254,117.336,52.254z"/>
	<path fill-rule="evenodd" clip-rule="evenodd" fill="#C11235" d="M140,47.365c0-2.699-2.188-4.889-4.888-4.889
		s-4.888,2.189-4.888,4.889s2.188,4.889,4.888,4.889S140,50.064,140,47.365z"/>
	<path fill-rule="evenodd" clip-rule="evenodd" fill="#C11235" d="M9.776,47.365c0-2.699-2.188-4.889-4.888-4.889S0,44.666,0,47.365
		s2.189,4.889,4.889,4.889S9.776,50.064,9.776,47.365z"/>
	<g>
		<path fill="#FFFFFF" d="M80.442,22.745H59.77c-1.993,0-3.615,1.621-3.615,3.616v42.007c0,1.996,1.622,3.617,3.615,3.617h20.672
			c1.993,0,3.616-1.621,3.616-3.615V26.361C84.058,24.366,82.435,22.745,80.442,22.745z M57.796,29.311h24.621v31.185H57.796V29.311
			z M59.77,24.386h20.672c1.089,0,1.976,0.887,1.976,1.976v1.308H57.796v-1.308C57.796,25.272,58.682,24.386,59.77,24.386z
			 M80.442,70.345H59.77c-1.088,0-1.974-0.886-1.974-1.975v-6.232h24.621v6.232C82.417,69.459,81.53,70.345,80.442,70.345z"/>
		<path fill="#FFFFFF" d="M70.105,62.958c-1.81,0-3.281,1.472-3.281,3.282s1.472,3.283,3.281,3.283c1.811,0,3.283-1.473,3.283-3.283
			S71.916,62.958,70.105,62.958z M70.105,67.882c-0.904,0-1.641-0.736-1.641-1.642s0.736-1.642,1.641-1.642
			c0.906,0,1.642,0.736,1.642,1.642S71.012,67.882,70.105,67.882z"/>
		<path fill="#FFFFFF" d="M66.824,26.849h3.281c0.455,0,0.82-0.366,0.82-0.821c0-0.454-0.365-0.82-0.82-0.82h-3.281
			c-0.456,0-0.821,0.366-0.821,0.82C66.003,26.482,66.368,26.849,66.824,26.849z"/>
		<path fill="#FFFFFF" d="M72.567,26.849h0.821c0.453,0,0.82-0.366,0.82-0.821c0-0.454-0.367-0.82-0.82-0.82h-0.821
			c-0.453,0-0.82,0.366-0.82,0.82C71.747,26.482,72.114,26.849,72.567,26.849z"/>
		<path fill="#FFFFFF" d="M91.945,26.495c-0.321-0.321-0.84-0.321-1.16,0c-0.32,0.32-0.32,0.839,0,1.159
			c3.066,3.066,3.066,8.056,0,11.122c-0.32,0.321-0.32,0.84,0,1.161c0.159,0.16,0.369,0.24,0.581,0.24c0.21,0,0.419-0.08,0.579-0.24
			C95.651,36.232,95.651,30.2,91.945,26.495z"/>
		<path fill="#FFFFFF" d="M88.489,28.363c-0.32-0.321-0.839-0.321-1.16,0c-0.32,0.32-0.32,0.839,0,1.159
			c1.015,1.016,1.574,2.368,1.574,3.808c0,1.44-0.56,2.79-1.574,3.807c-0.32,0.32-0.32,0.84,0,1.16
			c0.159,0.159,0.37,0.24,0.581,0.24c0.21,0,0.419-0.081,0.579-0.24c1.325-1.324,2.055-3.09,2.055-4.967
			C90.544,31.452,89.816,29.687,88.489,28.363z"/>
		<path fill="#FFFFFF" d="M49.427,27.654c0.32-0.32,0.32-0.839,0-1.159c-0.321-0.321-0.839-0.321-1.16,0
			c-3.706,3.705-3.706,9.736,0,13.442c0.159,0.16,0.369,0.24,0.58,0.24s0.421-0.08,0.58-0.24c0.32-0.321,0.32-0.84,0-1.161
			C46.359,35.711,46.359,30.722,49.427,27.654z"/>
		<path fill="#FFFFFF" d="M52.883,28.137c-0.321-0.322-0.839-0.322-1.161,0c-1.324,1.323-2.054,3.088-2.054,4.967
			c0,1.877,0.729,3.641,2.054,4.966c0.16,0.161,0.37,0.241,0.581,0.241c0.21,0,0.421-0.08,0.58-0.241
			c0.321-0.32,0.321-0.839,0-1.159c-1.015-1.016-1.574-2.368-1.574-3.807c0-1.44,0.559-2.792,1.574-3.807
			C53.202,28.977,53.202,28.456,52.883,28.137z"/>
	</g>
</g>
</svg>
