<?xml version="1.0" encoding="utf-8"?>
<!-- Generator: Adobe Illustrator 16.0.0, SVG Export Plug-In . SVG Version: 6.00 Build 0)  -->
<!DOCTYPE svg PUBLIC "-//W3C//DTD SVG 1.1//EN" "http://www.w3.org/Graphics/SVG/1.1/DTD/svg11.dtd">
<svg version="1.1" id="Шар_1" xmlns="http://www.w3.org/2000/svg" xmlns:xlink="http://www.w3.org/1999/xlink" x="0px" y="0px"
	 width="157.524px" height="107px" viewBox="0 0 157.524 107" enable-background="new 0 0 157.524 107" xml:space="preserve">
<path fill-rule="evenodd" clip-rule="evenodd" fill="#A61937" d="M132.022,59c-3.037,0-5.5-2.463-5.5-5.5s2.463-5.5,5.5-5.5
	c0.027,0,0.053,0.004,0.08,0.004C129.351,21.039,106.573,0,78.882,0C51.188,0,28.409,21.041,25.659,48.008
	c2.963,0.084,5.342,2.509,5.342,5.492s-2.379,5.408-5.342,5.492C28.409,85.959,51.188,107,78.882,107
	c27.691,0,50.469-21.039,53.221-48.004C132.075,58.996,132.05,59,132.022,59z"/>
<path fill-rule="evenodd" clip-rule="evenodd" fill="#A61937" d="M157.524,53.5c0-3.037-2.463-5.5-5.5-5.5s-5.5,2.463-5.5,5.5
	s2.463,5.5,5.5,5.5S157.524,56.537,157.524,53.5z"/>
<path fill-rule="evenodd" clip-rule="evenodd" fill="#A61937" d="M11,53.5c0-3.037-2.463-5.5-5.5-5.5S0,50.463,0,53.5
	S2.463,59,5.5,59S11,56.537,11,53.5z"/>
<g>
	<g>
		<g>
			<g>
				<path fill="#FFFFFF" d="M99.715,28.5H58.047c-2.297,0-4.166,1.869-4.166,4.167V58.5v3.333c0,2.298,1.869,4.167,4.166,4.167
					h14.002l-1.363,7.5h-3.273c-0.953,0-1.811,0.529-2.237,1.382c-0.39,0.78-0.349,1.689,0.109,2.433
					c0.458,0.742,1.255,1.186,2.126,1.186H90.35c0.873,0,1.668-0.443,2.127-1.186c0.459-0.743,0.5-1.652,0.109-2.433
					c-0.426-0.853-1.281-1.382-2.234-1.382h-3.275L85.713,66h14.002c2.297,0,4.166-1.869,4.166-4.167V58.5V32.667
					C103.881,30.369,102.012,28.5,99.715,28.5z M86.381,75.167h3.971c0.316,0,0.603,0.177,0.745,0.46
					c0.188,0.376,0.036,0.692-0.036,0.812c-0.074,0.118-0.291,0.395-0.709,0.395H67.41c-0.418,0-0.635-0.276-0.709-0.396
					c-0.072-0.119-0.224-0.435-0.035-0.811c0.142-0.283,0.428-0.46,0.744-0.46h3.971h6.666c0.461,0,0.834-0.374,0.834-0.834
					S78.508,73.5,78.047,73.5h-5.668l1.363-7.5h10.276l1.364,7.5h-2.336c-0.459,0-0.832,0.373-0.832,0.833s0.373,0.834,0.832,0.834
					H86.381L86.381,75.167z M102.215,61.833c0,1.379-1.123,2.5-2.5,2.5h-15H73.047h-15c-1.377,0-2.5-1.121-2.5-2.5v-2.5h46.668
					V61.833z M102.215,57.667H55.547v-25c0-1.379,1.123-2.5,2.5-2.5h41.668c1.377,0,2.5,1.121,2.5,2.5V57.667z"/>
			</g>
		</g>
	</g>
	<g>
		<g>
			<g>
				<path fill="#FFFFFF" d="M80.547,61h-3.332c-0.461,0-0.834,0.373-0.834,0.833s0.373,0.834,0.834,0.834h3.332
					c0.461,0,0.834-0.374,0.834-0.834S81.008,61,80.547,61z"/>
			</g>
		</g>
	</g>
	<g>
		<g>
			<path fill="#FFFFFF" d="M83.766,54.534c-4.518,0-8.549-2.865-10.029-7.129c-0.082-0.236-0.056-0.497,0.071-0.713
				c0.128-0.215,0.344-0.363,0.59-0.404c1.161-0.196,2.005-1.193,2.005-2.371s-0.843-2.174-2.004-2.369
				c-0.247-0.041-0.463-0.189-0.591-0.404c-0.127-0.215-0.153-0.476-0.071-0.712c1.48-4.267,5.511-7.132,10.029-7.132
				c5.854,0,10.617,4.763,10.617,10.617S89.62,54.534,83.766,54.534z M75.673,47.666c1.445,3.124,4.595,5.169,8.093,5.169
				c4.917,0,8.918-4.001,8.918-8.918s-4.001-8.918-8.918-8.918c-3.498,0-6.647,2.045-8.093,5.17
				c1.452,0.645,2.429,2.091,2.429,3.748C78.102,45.573,77.125,47.021,75.673,47.666z M83.766,48.022
				c-2.264,0-4.105-1.842-4.105-4.105s1.842-4.105,4.105-4.105s4.105,1.842,4.105,4.105S86.029,48.022,83.766,48.022z
				 M83.766,41.511c-1.326,0-2.406,1.08-2.406,2.406s1.08,2.406,2.406,2.406s2.406-1.08,2.406-2.406S85.092,41.511,83.766,41.511z"
				/>
		</g>
		<g>
			<path fill="#FFFFFF" d="M67.484,48.022c-2.264,0-4.105-1.842-4.105-4.105s1.842-4.105,4.105-4.105
				c2.265,0,4.107,1.842,4.107,4.105S69.749,48.022,67.484,48.022z M67.484,41.511c-1.326,0-2.406,1.08-2.406,2.406
				s1.08,2.406,2.406,2.406c1.328,0,2.408-1.08,2.408-2.406S68.813,41.511,67.484,41.511z"/>
		</g>
	</g>
</g>
</svg>
