<?xml version="1.0" encoding="utf-8"?>
<!-- Generator: Adobe Illustrator 16.0.0, SVG Export Plug-In . SVG Version: 6.00 Build 0)  -->
<!DOCTYPE svg PUBLIC "-//W3C//DTD SVG 1.1//EN" "http://www.w3.org/Graphics/SVG/1.1/DTD/svg11.dtd">
<svg version="1.1" id="Шар_1" xmlns="http://www.w3.org/2000/svg" xmlns:xlink="http://www.w3.org/1999/xlink" x="0px" y="0px"
	 width="140px" height="96.792px" viewBox="0 0 140 96.792" enable-background="new 0 0 140 96.792" xml:space="preserve">
<path fill-rule="evenodd" clip-rule="evenodd" fill="#C11235" d="M117.336,53.893c-2.699,0-4.889-2.189-4.889-4.889
	s2.189-4.889,4.889-4.889c0.025,0,0.047,0.004,0.072,0.004C114.961,20.154,94.719,1.455,70.107,1.455
	c-24.613,0-44.857,18.701-47.303,42.668c2.633,0.074,4.748,2.229,4.748,4.881s-2.115,4.807-4.748,4.882
	c2.445,23.966,22.689,42.667,47.303,42.667c24.611,0,44.854-18.699,47.301-42.664C117.383,53.889,117.361,53.893,117.336,53.893z"/>
<path fill-rule="evenodd" clip-rule="evenodd" fill="#C11235" d="M140,49.004c0-2.699-2.188-4.889-4.887-4.889
	s-4.889,2.189-4.889,4.889s2.189,4.889,4.889,4.889S140,51.703,140,49.004z"/>
<path fill-rule="evenodd" clip-rule="evenodd" fill="#C11235" d="M9.777,49.004c0-2.699-2.189-4.889-4.889-4.889S0,46.305,0,49.004
	s2.189,4.889,4.889,4.889S9.777,51.703,9.777,49.004z"/>
<g>
	<g>
		<g>
			<path fill="#FFFFFF" d="M84.907,35.26c-2.179,0-3.952,1.771-3.952,3.951s1.773,3.952,3.952,3.952s3.951-1.772,3.951-3.952
				S87.086,35.26,84.907,35.26z M84.907,41.992c-1.533,0-2.78-1.247-2.78-2.781c0-1.533,1.247-2.78,2.78-2.78
				s2.781,1.247,2.781,2.78C87.688,40.745,86.44,41.992,84.907,41.992z"/>
			<path fill="#FFFFFF" d="M84.907,28.525c-4.547,0-8.603,2.886-10.091,7.179c-0.058,0.163-0.039,0.342,0.048,0.489
				c0.089,0.152,0.237,0.252,0.405,0.28c1.344,0.225,2.318,1.377,2.318,2.737c0,1.361-0.975,2.514-2.318,2.74
				c-0.168,0.027-0.316,0.13-0.405,0.277c-0.087,0.151-0.105,0.331-0.048,0.492c1.488,4.291,5.544,7.176,10.091,7.176
				c5.892,0,10.685-4.794,10.685-10.686C95.592,33.32,90.799,28.525,84.907,28.525z M84.907,48.725
				c-3.694,0-7.082-2.163-8.634-5.514l-0.125-0.271l0.271-0.12c1.42-0.631,2.339-2.049,2.339-3.609s-0.919-2.978-2.339-3.606
				l-0.271-0.119l0.125-0.27c1.552-3.352,4.938-5.518,8.634-5.518c5.246,0,9.514,4.267,9.514,9.513
				C94.421,44.458,90.153,48.725,84.907,48.725z"/>
		</g>
		<path fill="#FFFFFF" d="M68.074,35.26c-2.181,0-3.953,1.771-3.953,3.951s1.772,3.952,3.953,3.952s3.954-1.772,3.954-3.952
			S70.255,35.26,68.074,35.26z M68.074,41.992c-1.534,0-2.781-1.247-2.781-2.781c0-1.533,1.247-2.78,2.781-2.78
			c1.533,0,2.783,1.247,2.783,2.78C70.857,40.745,69.607,41.992,68.074,41.992z"/>
	</g>
	<path fill="#FFFFFF" d="M52.586,31.648c-0.569-0.569-1.327-0.883-2.135-0.883s-1.565,0.313-2.134,0.883l-1.644,1.643
		c-2.022,2.023-2.602,6.563-1.511,11.846c0.706,3.414,2.735,9.987,8.397,15.65c5.654,5.652,12.167,7.588,15.546,8.24
		c1.074,0.207,2.752,0.455,4.638,0.455h0.001c2.265,0,5.332-0.369,7.087-2.123l1.643-1.643c1.177-1.178,1.177-3.094,0-4.27
		l-6.572-6.572c-1.14-1.141-3.125-1.139-4.268,0l-1.643,1.643c-0.745,0.746-1.737,1.156-2.794,1.156
		c-1.058,0-2.055-0.412-2.803-1.161l-6.879-6.788c-0.748-0.747-1.159-1.74-1.159-2.798c0-1.057,0.411-2.049,1.156-2.795l1.645-1.643
		c1.176-1.178,1.176-3.093,0-4.269L52.586,31.648z M72.617,55.856c0.616-0.616,1.688-0.616,2.304,0l6.573,6.573
		c0.307,0.308,0.477,0.717,0.477,1.151c0,0.437-0.169,0.846-0.477,1.153l-1.147,1.147l-8.878-8.876L72.617,55.856z M56.538,50.709
		l6.879,6.789c1.009,1.01,2.351,1.563,3.78,1.563c1.057,0,2.077-0.306,2.95-0.885l0.319-0.211l8.875,8.876l-0.574,0.293
		c-1.268,0.644-2.951,0.969-5.003,0.969c-1.751,0-3.356-0.238-4.395-0.438c-3.226-0.625-9.442-2.476-14.827-7.861
		c-5.406-5.407-7.345-11.688-8.018-14.948c-0.807-3.897-0.67-7.356,0.376-9.488l0.288-0.587l8.879,8.877l-0.211,0.319
		C54.459,46.086,54.746,48.918,56.538,50.709z M58.176,41.508l-1.147,1.146l-8.878-8.876l1.148-1.149
		c0.612-0.615,1.691-0.615,2.306,0.002l6.571,6.571C58.811,39.838,58.811,40.871,58.176,41.508z"/>
</g>
</svg>
