<?xml version="1.0" encoding="utf-8"?>
<!-- Generator: Adobe Illustrator 16.0.0, SVG Export Plug-In . SVG Version: 6.00 Build 0)  -->
<!DOCTYPE svg PUBLIC "-//W3C//DTD SVG 1.1//EN" "http://www.w3.org/Graphics/SVG/1.1/DTD/svg11.dtd">
<svg version="1.1" id="Шар_1" xmlns="http://www.w3.org/2000/svg" xmlns:xlink="http://www.w3.org/1999/xlink" x="0px" y="0px"
	 width="92.9px" height="92.9px" viewBox="0 0 92.9 92.9" style="enable-background:new 0 0 92.9 92.9;" xml:space="preserve">
<path style="fill:#5B528A;" d="M61.5,0C56.1,0,50.7,1.4,46,4.1c-4.6,2.6-8.4,6.3-11.2,10.8c-0.2,0.3-0.2,0.6-0.2,0.9
	c0.1,0.3,0.3,0.6,0.6,0.8c0.6,0.3,1.4,0.2,1.7-0.4C42.3,7.6,51.5,2.5,61.5,2.5c15.9,0,28.9,13,28.9,28.9s-13,28.9-28.9,28.9
	c-0.4,0-0.8,0-1.2,0l-0.6,0l2.6-2.6c0.2-0.2,0.4-0.5,0.4-0.9c0-0.3-0.1-0.6-0.4-0.9s-0.5-0.4-0.9-0.4c-0.3,0-0.6,0.1-0.9,0.4
	l-4.8,4.8c-0.5,0.5-0.5,1.3,0,1.8l4.8,4.8c0.5,0.5,1.3,0.5,1.8,0c0.2-0.2,0.4-0.5,0.4-0.9s-0.1-0.6-0.4-0.9l-2.7-2.7l0.6,0
	c0.4,0,0.8,0,1.2,0c17.3,0,31.4-14.1,31.4-31.4S78.8,0,61.5,0z"/>
<path style="fill:#5B528A;" d="M77.4,36.5h-1.9V21.9c0-0.7-0.6-1.2-1.2-1.2S73,21.2,73,21.9v14.6h-6.8l2.9-14.4
	c0.1-0.3,0-0.7-0.2-0.9s-0.5-0.5-0.8-0.5c-0.1,0-0.2,0-0.2,0c-0.6,0-1.1,0.4-1.2,1l-3.2,15.9c-0.1,0.4,0,0.7,0.3,1
	c0.2,0.3,0.6,0.5,1,0.5H73v3.5c0,0.7,0.6,1.2,1.2,1.2c0.7,0,1.2-0.6,1.2-1.2V39h1.9c0.7,0,1.2-0.6,1.2-1.2S78.1,36.5,77.4,36.5z"/>
<path style="fill:#5B528A;" d="M60,41.3h-9.8l0.1-0.3c0.5-2,2.2-3.1,4.6-4.6c2.8-1.7,6.3-3.8,6.3-9c0-3.7-3-6.8-6.8-6.8
	c-3.7,0-6.8,3-6.8,6.8c0,0.7,0.6,1.2,1.2,1.2s1.2-0.6,1.2-1.2c0-2.4,1.9-4.3,4.3-4.3c2.4,0,4.3,1.9,4.3,4.3c0,3.8-2.3,5.1-5.1,6.8
	c-1.2,0.7-2.5,1.5-3.5,2.5L49.7,37l-0.1-0.4C47.6,26.4,38.6,19,28.2,19C16.2,19,6.3,28.9,6.3,40.9v34.6l-2.7,1.1
	C1.4,77.6,0,79.7,0,82.2v6.3c0,2.4,2,4.4,4.4,4.4H52c2.4,0,4.4-2,4.4-4.4v-6.3c0-2.4-1.4-4.6-3.7-5.5l-2.7-1.1V43.7H60
	c0.7,0,1.2-0.6,1.2-1.2C61.2,41.8,60.6,41.3,60,41.3z M8.8,40.9c0-10.7,8.7-19.4,19.4-19.4c10.7,0,19.4,8.7,19.4,19.4v5.5l-0.3-0.1
	c-0.5-0.2-1-0.3-1.6-0.3h-0.6l0-0.2c-0.2-1.1-1.1-1.9-2.1-2.1c-4.8-1.1-9.2-3.7-12.7-7.2c-0.5-0.5-1.3-0.9-2-0.9
	c-0.8,0-1.5,0.3-2,0.9c-3.4,3.6-7.8,6.1-12.7,7.2c-1.1,0.3-1.9,1.1-2.1,2.1l0,0.2h-0.6c-0.5,0-1.1,0.1-1.6,0.3l-0.3,0.1V40.9z
	 M28.2,62.8c4.7,0,8.8-0.8,12-2.4l1-0.5l-0.7,0.9c-0.4,0.6-1,1-1.6,1.4l-8.3,4.6c-0.8,0.4-1.6,0.6-2.5,0.6c-0.9,0-1.7-0.2-2.5-0.6
	l-8.3-4.6c-1.5-0.8-2.5-2.3-2.6-4l-1.1-11.6c0-0.2,0.1-0.3,0.3-0.4c5.3-1.3,10.1-4,13.9-7.9l0.1-0.1l0.3,0l0.1,0.1
	c3.8,3.9,8.6,6.7,13.9,7.9c0.2,0,0.3,0.2,0.3,0.4l-0.9,9.9l-0.1,0.1c-1.3,1.1-5.2,3.8-13.4,3.8c-0.7,0-1.2,0.6-1.2,1.2
	C27,62.2,27.5,62.8,28.2,62.8z M21.5,68.9v-1.8l3,1.7c2.3,1.3,5.1,1.3,7.4,0l3-1.7v1.8c0,1.8,1.1,3.4,2.7,4.1l2,0.8l-0.2,0.3
	c-4.9,5.9-9.8,7.9-11.1,8.3l-0.1,0l-0.1,0C26.8,82,22,80,17,74.1l-0.2-0.3l2-0.8C20.5,72.3,21.5,70.7,21.5,68.9z M38.6,70.7
	c-0.7-0.3-1.2-1-1.2-1.8v-3.2l2.8-1.5c2.2-1.2,3.6-3.4,3.9-5.9l0-0.3h1.6c0.5,0,1.1-0.1,1.6-0.3l0.3-0.1v16.9L38.6,70.7z M45.7,55.5
	h-1.4l0.6-7h0.7c1.1,0,1.9,0.9,1.9,1.9v3.2C47.6,54.7,46.7,55.5,45.7,55.5z M8.8,50.4c0-1.1,0.9-1.9,1.9-1.9h0.7l0.6,7h-1.4
	c-1.1,0-1.9-0.9-1.9-1.9V50.4z M8.8,57.6l0.3,0.1c0.5,0.2,1,0.3,1.6,0.3h1.6l0,0.3c0.2,2.5,1.7,4.7,3.9,5.9l2.8,1.5v3.2
	c0,0.8-0.5,1.5-1.2,1.8l-9,3.8V57.6z M9.5,90.5H4.4c-1.1,0-1.9-0.9-1.9-1.9v-6.3c0-0.4,0.1-0.9,0.2-1.3l0.1-0.3l5.4,4.3
	c0.8,0.7,1.3,1.7,1.3,2.8V90.5z M12,90.5v-2.8c0-1.8-0.8-3.5-2.3-4.7l-5.1-4l8.2-3.4l0.1,0.3c0.6,2.6,2,8,4.5,14.4l0.1,0.3H12z
	 M36.1,90.5H20.3l-0.1-0.2c-2.1-5.2-3.5-9.9-4.3-12.9l-0.3-1l0.7,0.7c5.9,6.4,11.3,7.8,11.5,7.8c0.2,0.1,0.4,0.1,0.6,0
	c0.2-0.1,5.6-1.4,11.5-7.8l0.7-0.7l-0.3,1c-0.8,3-2.2,7.7-4.3,12.9L36.1,90.5z M53.6,80.6l0.1,0.3c0.2,0.4,0.2,0.8,0.2,1.3v6.3
	c0,1.1-0.9,1.9-1.9,1.9h-5.1v-2.8c0-1.1,0.5-2.1,1.3-2.8L53.6,80.6z M51.7,78.9l-5.1,4c-1.4,1.1-2.3,2.9-2.3,4.7v2.8h-5.7l0.1-0.3
	c2.5-6.4,3.9-11.7,4.5-14.4l0.1-0.3L51.7,78.9z"/>
</svg>
