<?xml version="1.0" encoding="utf-8"?>
<!-- Generator: Adobe Illustrator 16.0.0, SVG Export Plug-In . SVG Version: 6.00 Build 0)  -->
<!DOCTYPE svg PUBLIC "-//W3C//DTD SVG 1.1//EN" "http://www.w3.org/Graphics/SVG/1.1/DTD/svg11.dtd">
<svg version="1.1" id="Шар_1" xmlns="http://www.w3.org/2000/svg" xmlns:xlink="http://www.w3.org/1999/xlink" x="0px" y="0px"
	 width="157.524px" height="107px" viewBox="0 0 157.524 107" enable-background="new 0 0 157.524 107" xml:space="preserve">
<path fill-rule="evenodd" clip-rule="evenodd" fill="#C11235" d="M132.022,59c-3.037,0-5.5-2.463-5.5-5.5s2.463-5.5,5.5-5.5
	c0.027,0,0.053,0.004,0.08,0.004C129.351,21.039,106.573,0,78.882,0C51.188,0,28.409,21.041,25.659,48.008
	c2.963,0.084,5.342,2.509,5.342,5.492s-2.379,5.408-5.342,5.492C28.409,85.959,51.188,107,78.882,107
	c27.691,0,50.469-21.039,53.221-48.004C132.075,58.996,132.05,59,132.022,59z"/>
<path fill-rule="evenodd" clip-rule="evenodd" fill="#C11235" d="M157.524,53.5c0-3.037-2.463-5.5-5.5-5.5s-5.5,2.463-5.5,5.5
	s2.463,5.5,5.5,5.5S157.524,56.537,157.524,53.5z"/>
<path fill-rule="evenodd" clip-rule="evenodd" fill="#C11235" d="M11,53.5c0-3.037-2.463-5.5-5.5-5.5S0,50.463,0,53.5
	S2.463,59,5.5,59S11,56.537,11,53.5z"/>
<g>
	<path fill="#FFFFFF" d="M95.146,72.875c0.786,0.226,1.642,0.003,2.215-0.569l2.335-2.335c0.877-0.876,0.877-2.304,0-3.181
		l-8.979-8.978c-0.848-0.848-2.332-0.848-3.18,0l-2.335,2.335c-0.577,0.577-0.795,1.426-0.569,2.215l0.081,0.283l-1.089,1.089
		c-0.211,0.212-0.539,0.319-0.976,0.319c-1.337,0-4.729-1.13-8.963-5.363c-4.641-4.64-6.065-8.914-5.044-9.938l1.089-1.09
		l0.282,0.081c0.804,0.229,1.646,0.003,2.217-0.568l2.335-2.335c0.876-0.877,0.876-2.303,0-3.18l-8.979-8.979
		c-0.425-0.424-0.989-0.658-1.59-0.658s-1.166,0.234-1.591,0.658l-2.334,2.335c-0.578,0.577-0.795,1.425-0.568,2.215l0.081,0.282
		l-0.206,0.208c0,0-0.676,0.681-0.76,0.774c-2.365,2.631-2.791,6.828-1.206,11.828c1.588,5.013,5.02,10.331,9.664,14.976
		c4.644,4.644,9.962,8.075,14.976,9.665c1.979,0.627,3.843,0.945,5.542,0.945c2.753,0,4.963-0.814,6.568-2.419l0.699-0.699
		L95.146,72.875z M63.998,33.565l9.686,9.686l-3.041,3.044l-9.687-9.688L63.998,33.565z M92.928,72.255
		c-1.25,1.25-3.095,1.911-5.333,1.911c-1.51,0-3.196-0.292-5.014-0.868c-4.751-1.506-9.817-4.785-14.267-9.234
		s-7.729-9.516-9.233-14.267c-1.445-4.555-1.075-8.229,1.042-10.346l0.602-0.602l7.675,7.675l-0.992,0.992
		c-2.392,2.395,0.814,8.182,5.044,12.411c3.562,3.562,7.569,5.862,10.211,5.862c0.917,0,1.657-0.275,2.2-0.818l0.993-0.992
		l7.674,7.674L92.928,72.255z M86.086,61.737l3.041-3.042l9.687,9.686l-0.354,0.354c-2.48,2.481-2.48,2.481-2.688,2.481h-0.207
		L86.086,61.737z"/>
	<path fill="#FFFFFF" d="M80.981,38.061c-0.483,0-0.876,0.392-0.876,0.874s0.392,0.874,0.874,0.874c3.097,0,6.008,1.206,8.196,3.396
		c2.188,2.188,3.394,5.098,3.394,8.195c0,0.482,0.393,0.874,0.875,0.874s0.874-0.392,0.874-0.874c0-3.563-1.388-6.913-3.907-9.432
		C87.893,39.448,84.544,38.061,80.981,38.061z"/>
	<path fill="#FFFFFF" d="M80.979,31.089c-0.482,0-0.874,0.393-0.874,0.875s0.392,0.874,0.874,0.874c4.958,0,9.62,1.931,13.126,5.437
		s5.437,8.168,5.437,13.125c0,0.482,0.392,0.875,0.874,0.875s0.874-0.393,0.874-0.875c0.001-5.424-2.111-10.524-5.948-14.361
		C91.505,33.202,86.404,31.089,80.979,31.089z"/>
	<path fill="#FFFFFF" d="M80.98,45.03c-0.482,0.001-0.875,0.393-0.875,0.875c0.001,0.482,0.394,0.875,0.875,0.875
		c1.269,0,2.367,0.455,3.266,1.352c0.885,0.886,1.353,2.016,1.353,3.267c0,0.482,0.392,0.874,0.874,0.874s0.874-0.392,0.874-0.873
		c0.001-1.725-0.644-3.281-1.864-4.503C84.262,45.676,82.705,45.03,80.98,45.03z"/>
</g>
</svg>
