<?xml version="1.0" encoding="utf-8"?>
<!-- Generator: Adobe Illustrator 16.0.0, SVG Export Plug-In . SVG Version: 6.00 Build 0)  -->
<!DOCTYPE svg PUBLIC "-//W3C//DTD SVG 1.1//EN" "http://www.w3.org/Graphics/SVG/1.1/DTD/svg11.dtd">
<svg version="1.1" id="Шар_1" xmlns="http://www.w3.org/2000/svg" xmlns:xlink="http://www.w3.org/1999/xlink" x="0px" y="0px"
	 width="98.5px" height="57px" viewBox="0 0 98.5 57" style="enable-background:new 0 0 98.5 57;" xml:space="preserve">
<g>
	<circle style="fill:#5B528A;" cx="93.9" cy="28.5" r="4.6"/>
	<circle style="fill:#5B528A;" cx="4.6" cy="28.5" r="4.6"/>
	<path style="fill:#5B528A;" d="M77.3,33.1c-2.5,0-4.6-2.1-4.6-4.6c0-2.5,2.1-4.6,4.6-4.6c0,0,0.1,0,0.1,0C75.2,10.4,63.5,0,49.3,0
		C35.1,0,23.4,10.3,21.2,23.9c2.5,0,4.6,2.1,4.6,4.6s-2.1,4.6-4.6,4.6C23.4,46.6,35.1,57,49.3,57C63.5,57,75.2,46.6,77.3,33.1
		C77.4,33.1,77.3,33.1,77.3,33.1z"/>
</g>
<g>
	<g>
		<path style="fill:#FFFFFF;" d="M64.1,16.3c0-0.7-0.3-1.4-0.7-1.9c-0.5-0.5-1.2-0.8-1.9-0.8c-0.8,0-1.5,0.3-2.1,0.8L57,16.8l-3-3
			c0,0-0.1-0.1-0.1-0.1h0c0,0-0.1,0-0.1,0H40.8c-1.4,0-2.5,1.1-2.5,2.5v19L38,35.5c0,0,0,0.1-0.1,0.1c0,0,0,0,0,0l-3.5,7
			c-0.1,0.2,0,0.5,0.2,0.7c0.2,0.1,0.3,0.1,0.5,0L39,41c0.5,0.5,1.1,0.8,1.8,0.8h16.7c1.4,0,2.5-1.1,2.5-2.5L60.1,28v-5.2l1.2-1.3
			c0.3-0.3,0.4-0.7,0.4-1c0-0.2-0.1-0.4-0.1-0.6l1.6-1.6C63.8,17.7,64.1,17.1,64.1,16.3z M54.2,15.3l2.2,2.2l-1.7,1.7
			c-0.3-0.3-0.5-0.7-0.5-1.1V15.3z M39.3,16.2c0-0.8,0.7-1.5,1.5-1.5h12.3v3.4c0,0.7,0.3,1.3,0.8,1.8L48.7,25h-7.4
			c-0.3,0-0.5,0.2-0.5,0.5c0,0.3,0.2,0.5,0.5,0.5h6.4l-1,1h-5.4c-0.3,0-0.5,0.2-0.5,0.5c0,0.3,0.2,0.5,0.5,0.5h4.4l-1,1h-3.4
			c-0.3,0-0.5,0.2-0.5,0.5c0,0.3,0.2,0.5,0.5,0.5h2.3l-1,1h-1.4c-0.3,0-0.5,0.2-0.5,0.5c0,0.3,0.2,0.5,0.5,0.5h0.3l-2.3,2.3V16.2z
			 M39.3,35.6l3.9-3.8l11.5-11.3l1.8,1.8l-4.5,4.5c-0.2,0.2-0.2,0.5,0,0.7l0.3,0.3l-3.3,3.2l-7.4,7.2l-2.2-2.2V35.6z M53.7,26.5
			l0.7,0.7l-0.7,0.7L53,27.2L53.7,26.5z M36.1,41.6l2.5-4.9l2.2,2.2L36.1,41.6z M59.1,28l-0.1,11.4c0,0.8-0.7,1.5-1.5,1.5H40.9
			c-0.4,0-0.7-0.1-1-0.3l1.9-1.1c0,0,0.1,0,0.1-0.1l7.6-7.4h7.2c0.3,0,0.5-0.2,0.5-0.5c0-0.3-0.2-0.5-0.5-0.5h-6.2l2.5-2.4l0.4,0.4
			c0.1,0.1,0.2,0.1,0.3,0.1h0.1c0,0,0.1,0,0.1,0h0c0.1,0,0.1-0.1,0.2-0.1l5.1-5.1V28L59.1,28z M60.7,20.9
			C60.7,20.9,60.7,20.9,60.7,20.9L60.7,20.9l-1.4,1.4l-4.2,4.2l-0.7-0.7l3.2-3.2l2.1-2.1h0.1c0.2,0,0.4-0.1,0.5-0.3
			c0-0.1,0-0.1,0-0.2c0.1,0,0.1,0,0.2,0h0c0,0,0.1,0,0.1,0h0c0.1,0,0.1,0.1,0.1,0.1C60.8,20.4,60.9,20.7,60.7,20.9z M63.1,16.3
			c0,0.5-0.2,0.9-0.5,1.2L61,19.2h-0.1l-0.1,0l-0.2,0h-0.1c-0.1,0-0.2,0-0.2,0h0c-0.1,0-0.2,0-0.3,0H60l-0.2,0.1l-0.1,0l-0.2,0.1
			l-0.1,0c-0.1,0-0.1,0.1-0.2,0.2l-0.1,0.1L59,19.7l-1.8,1.8l-1.7-1.7l2-2l2.7-2.7c0.4-0.4,0.9-0.6,1.4-0.6c0.4,0,0.9,0.2,1.2,0.5
			C62.9,15.5,63.1,15.9,63.1,16.3L63.1,16.3L63.1,16.3z"/>
	</g>
</g>
</svg>
