<svg width="218" height="148" viewBox="0 0 218 148" version="1.1" xmlns="http://www.w3.org/2000/svg" xmlns:xlink="http://www.w3.org/1999/xlink">
<title>1</title>
<desc>Created using Figma</desc>
<g id="Canvas" transform="translate(-3115 -5243)">
<g id="1">
<g id="Group 2.9">
<g id="Vector">
<use xlink:href="#path0_fill" transform="translate(3150.51 5243)" fill="#C11235"/>
</g>
<g id="Vector">
<use xlink:href="#path1_fill" transform="translate(3317.78 5309.39)" fill="#C11235"/>
</g>
<g id="Vector">
<use xlink:href="#path2_fill" transform="translate(3115 5309.39)" fill="#C11235"/>
</g>
</g>
<g id="Group">
<g id="Vector">
<use xlink:href="#path3_fill" transform="translate(3257.63 5308.54)" fill="#FFFFFF"/>
</g>
<g id="Vector">
<use xlink:href="#path4_fill" transform="translate(3175 5314.89)" fill="#FFFFFF"/>
</g>
<g id="Vector">
<use xlink:href="#path5_fill" transform="translate(3185.06 5274.05)" fill="#FFFFFF"/>
</g>
<g id="Vector">
<use xlink:href="#path6_fill" transform="translate(3222.35 5274)" fill="#FFFFFF"/>
</g>
<g id="Vector">
<use xlink:href="#path7_fill" transform="translate(3227.77 5332.68)" fill="#FFFFFF"/>
</g>
<g id="Vector">
<use xlink:href="#path8_fill" transform="translate(3181.19 5318.91)" fill="#FFFFFF"/>
</g>
</g>
<g id="Group">
<g id="Vector">
<use xlink:href="#path9_fill" transform="translate(3198.26 5314.76)" fill="#FFFFFF"/>
</g>
<g id="Vector">
<use xlink:href="#path10_fill" transform="translate(3245.68 5314.76)" fill="#FFFFFF"/>
</g>
</g>
<g id="Group">
<g id="Group">
<g id="Vector">
<use xlink:href="#path11_fill" transform="translate(3212.15 5299.95)" fill="#FFFFFF"/>
</g>
</g>
<g id="Group">
<g id="Vector">
<use xlink:href="#path12_fill" transform="translate(3212.15 5319.41)" fill="#FFFFFF"/>
</g>
</g>
</g>
</g>
</g>
<defs>
<path id="path0_fill" fill-rule="evenodd" d="M 147.199 81.6087C 142.996 81.6087 139.586 78.202 139.586 74C 139.586 69.798 142.994 66.3913 147.199 66.3913C 147.238 66.3913 147.272 66.3975 147.311 66.3975C 143.5 29.1011 111.981 -5.22436e-06 73.657 -5.22436e-06C 35.3313 -5.22436e-06 3.80874 29.1042 -2.47103e-06 66.4038C 4.09992 66.5189 7.39326 69.8727 7.39326 74C 7.39326 78.1273 4.09992 81.4811 -2.47103e-06 81.5978C 3.80718 118.896 35.3297 148 73.657 148C 111.979 148 143.5 118.899 147.311 81.6025C 147.27 81.6025 147.238 81.6087 147.199 81.6087Z"/>
<path id="path1_fill" fill-rule="evenodd" d="M 15.2225 7.6087C 15.2225 3.40827 11.8155 -1.13986e-05 7.61281 -1.13986e-05C 3.41012 -1.13986e-05 6.17758e-07 3.40672 6.17758e-07 7.6087C 6.17758e-07 11.8107 3.40856 15.2174 7.61281 15.2174C 11.8171 15.2174 15.2225 11.8107 15.2225 7.6087Z"/>
<path id="path2_fill" fill-rule="evenodd" d="M 15.2256 7.6087C 15.2256 3.40827 11.8171 -1.13986e-05 7.61281 -1.13986e-05C 3.40856 -1.13986e-05 -2.94623e-06 3.40672 -2.94623e-06 7.6087C -2.94623e-06 11.8107 3.40856 15.2174 7.61281 15.2174C 11.8171 15.2174 15.2256 11.8107 15.2256 7.6087Z"/>
<path id="path3_fill" d="M 8.51577 10.6761L 3.34952e-05 3.40591L 1.86036 1.08645L 8.20435 6.18919L 13.3135 5.62618e-05L 15.7872 2.01376L 8.51577 10.6761Z"/>
<path id="path4_fill" d="M 2.47362 10.6746L -4.01942e-06 8.66093L 7.27005 -4.0187e-05L 15.7858 7.26879L 13.9255 9.58825L 7.58147 4.32777L 2.47362 10.6746Z"/>
<path id="path5_fill" d="M 2.78783 26.1475L 1.94272e-05 24.9077C 0.466487 23.9805 0.928795 23.0532 1.39526 22.1218L 4.02397 23.6676C 3.71527 24.4413 3.2488 25.3725 2.78783 26.1475ZM 5.72929 21.0381L 3.09514 19.3385C 3.71527 18.4098 4.33544 17.6335 4.95145 16.7062L 7.43194 18.5649C 6.81044 19.3385 6.34393 20.2658 5.72929 21.0381ZM 9.43914 16.2437L 7.11775 14.23C 7.89154 13.4564 8.51306 12.6829 9.28548 11.9106L 11.4531 14.078C 10.8316 14.8517 10.0593 15.6237 9.43914 16.2437ZM 13.7732 12.2234L 11.7604 9.89822C 12.5329 9.28369 13.4658 8.50885 14.2396 7.89021L 16.0959 10.3634C 15.3207 10.9834 14.3933 11.602 13.7732 12.2234ZM 18.5695 8.81618L 17.0219 6.18795C 17.9494 5.56794 18.881 5.10131 19.8084 4.64042L 21.2037 7.42236C 20.2707 7.73374 19.3447 8.19617 18.5695 8.81618ZM 23.8324 6.03022L 22.5921 3.24693C 23.6787 2.78055 24.6062 2.47452 25.6928 2.00951L 26.6202 4.94919C 25.6928 5.25508 24.7598 5.72158 23.8324 6.03022ZM 29.5548 4.17425L 28.7866 1.23323C 29.8663 0.924593 30.7951 0.772129 31.8803 0.61301L 32.3427 3.70774C 31.4152 3.70774 30.4878 4.02062 29.5548 4.17425ZM 35.4378 3.24693L 35.1291 0.153538C 35.9029 0.153538 36.6767 0.000158069 37.4491 0.000158069L 37.6027 3.09456C 36.8317 3.09319 36.0565 3.0933 35.4378 3.24693Z"/>
<path id="path6_fill" d="M 41.9327 41.3516C 41.0053 19.2245 22.2834 2.20704 0.152303 3.1398L -1.60777e-05 0.0454038C 23.6718 -1.03962 43.9467 17.5252 45.0278 41.1982L 41.9327 41.3516Z"/>
<path id="path7_fill" d="M 0.308704 27.3877L -3.81845e-05 24.293C 0.614601 24.293 1.2348 24.1353 1.85493 24.1353L 2.32135 27.23C 1.54893 27.23 0.928831 27.3877 0.308704 27.3877ZM 5.41647 26.6098L 4.79773 23.5154C 5.72518 23.3617 6.80634 23.0531 7.73928 22.7458L 8.66668 25.6811C 7.42642 26.1475 6.34392 26.4561 5.41647 26.6098ZM 11.449 24.9089L 10.3679 21.9682C 11.2953 21.6595 12.2269 21.1985 13.1544 20.8872L 14.3892 23.6745C 13.4603 24.1354 12.5343 24.448 11.449 24.9089ZM 17.3306 22.1259L 15.7831 19.34C 16.7105 18.8736 17.4843 18.4124 18.2581 17.7924L 19.9648 20.4206C 19.1896 21.1998 18.2567 21.6595 17.3306 22.1259ZM 22.7458 18.7211L 20.8909 16.2452C 21.6633 15.6266 22.4385 15.0065 23.2109 14.3906L 25.2208 16.7104C 24.4471 17.3263 23.5196 18.0997 22.7458 18.7211ZM 27.5421 14.3919L 25.2222 12.2248C 25.8409 11.4512 26.6161 10.8311 27.2348 10.0574L 29.5562 12.0725C 28.9361 12.8434 28.1609 13.6169 27.5421 14.3919ZM 31.5703 9.43754L 29.0939 7.58157C 29.7099 6.80929 30.1764 5.88186 30.7951 5.10136L 33.4237 6.65023C 32.805 7.73663 32.189 8.66389 31.5703 9.43754ZM 34.9714 4.02334L 32.189 2.62818C 32.6514 1.7009 33.1164 0.772228 33.4237 -4.82244e-05L 36.2102 1.23872C 35.8988 2.00825 35.4378 3.09469 34.9714 4.02334Z"/>
<path id="path8_fill" d="M 43.0193 41.3094C 32.1876 41.3094 21.9761 37.2832 13.9268 30.0145C 5.41649 22.2794 0.465073 11.6033 -2.27767e-05 0.152177L 3.09518 0.000136636C 3.56165 10.6762 8.20434 20.5786 16.0945 27.6937C 23.986 34.9679 34.2017 38.6769 44.8769 38.216L 45.0347 41.3094C 44.2595 41.3094 43.6394 41.3094 43.0193 41.3094Z"/>
<path id="path9_fill" d="M 4.6153 3.21496e-05L 0 3.21496e-05L 0 4.61451L 4.6153 4.61451L 4.6153 3.21496e-05Z"/>
<path id="path10_fill" d="M 4.61668 3.21496e-05L 3.55049e-05 3.21496e-05L 3.55049e-05 4.61451L 4.61668 4.61451L 4.61668 3.21496e-05Z"/>
<path id="path11_fill" d="M 1.46248 16.0724L 1.90563 16.0724L 11.1431 16.0724L 15.9368 16.0724L 15.9394 16.0697L 22.7911 16.0697C 23.5978 16.0697 24.2522 15.4141 24.2522 14.6075C 24.2522 13.8037 23.5964 13.1478 22.7911 13.1478L 18.741 13.1478L 19.0182 12.7241C 19.5285 11.9422 19.9113 11.1714 20.1885 10.3772C 20.9239 8.24692 20.5835 5.72275 19.3049 3.78451C 17.236 0.656999 14.0173 -9.9128e-05 11.6836 -9.9128e-05C 9.43087 -9.9128e-05 7.01895 0.617329 4.88829 1.73665C 4.05551 2.17148 4.13233 2.90259 4.20641 3.19477C 4.35321 3.79421 4.91983 4.43487 5.67853 4.43487C 5.91313 4.43487 6.1505 4.37313 6.38511 4.24968C 9.07004 2.83818 11.711 2.50629 14.0928 3.28954C 16.0245 3.92465 17.4816 5.67885 17.6339 7.55673C 17.7848 9.41815 16.9081 11.2233 14.9599 13.0724L 14.8789 13.1478L 1.46114 13.1478C 0.65443 13.1478 -1.55974e-13 13.805 -1.55974e-13 14.6102C 0.00137196 15.414 0.657142 16.0724 1.46248 16.0724Z"/>
<path id="path12_fill" d="M 22.791 0.00015539L 19.2184 0.00015539L 11.434 0.00015539L 7.17129 0.00015539L 1.90425 0.00015539L 1.46111 0.00015539C 0.654398 0.00015539 -3.21554e-05 0.657095 -3.21554e-05 1.46229C -3.21554e-05 2.26749 0.65577 2.92443 1.46111 2.92443L 5.41103 2.92443L 5.27931 3.29348C 4.08433 6.61029 4.72371 9.98184 6.98196 12.3151C 8.50209 13.883 10.6835 14.7116 13.2916 14.7116C 15.5485 14.7116 18.029 14.1067 20.2817 13.0094C 21.109 12.6061 21.046 11.9038 20.9801 11.6212C 20.8374 11.0012 20.2529 10.3373 19.4531 10.3373C 19.2253 10.3373 18.9948 10.3947 18.7712 10.5004C 17.1331 11.3014 15.1163 11.7803 13.3794 11.7803C 10.6313 11.7803 8.70376 10.6104 7.95056 8.48832C 7.26869 6.56243 7.46762 4.7831 8.56519 3.05336L 8.64751 2.92443L 22.7924 2.92443C 23.5992 2.92443 24.2536 2.26749 24.2536 1.46229C 24.2536 1.0741 24.1013 0.704899 23.8255 0.427812C 23.5498 0.152097 23.1807 0.00015539 22.791 0.00015539Z"/>
</defs>
</svg>
