<svg width="218" height="148" viewBox="0 0 218 148" version="1.1" xmlns="http://www.w3.org/2000/svg" xmlns:xlink="http://www.w3.org/1999/xlink">
<title>6</title>
<desc>Created using Figma</desc>
<g id="Canvas" transform="translate(-3472 -5485)">
<g id="6">
<g id="Group 2.14">
<g id="Vector">
<use xlink:href="#path0_fill" transform="translate(3507.51 5485)" fill="#C11235"/>
</g>
<g id="Vector">
<use xlink:href="#path1_fill" transform="translate(3674.78 5551.39)" fill="#C11235"/>
</g>
<g id="Vector">
<use xlink:href="#path2_fill" transform="translate(3472 5551.39)" fill="#C11235"/>
</g>
</g>
<g id="Group 2">
<g id="Vector">
<use xlink:href="#path3_fill" transform="translate(3547 5531)" fill="#FFFFFF"/>
</g>
<g id="Vector">
<use xlink:href="#path4_fill" transform="translate(3568.27 5541.37)" fill="#FFFFFF"/>
</g>
<g id="Vector">
<use xlink:href="#path5_fill" transform="translate(3572.61 5548.48)" fill="#FFFFFF"/>
</g>
<g id="Vector">
<use xlink:href="#path6_fill" transform="translate(3579.46 5548.48)" fill="#FFFFFF"/>
</g>
<g id="Vector">
<use xlink:href="#path7_fill" transform="translate(3565.76 5548.48)" fill="#FFFFFF"/>
</g>
</g>
</g>
</g>
<defs>
<path id="path0_fill" fill-rule="evenodd" d="M 147.199 81.6087C 142.996 81.6087 139.586 78.202 139.586 74C 139.586 69.798 142.994 66.3913 147.199 66.3913C 147.238 66.3913 147.272 66.3975 147.311 66.3975C 143.5 29.1011 111.981 -5.22436e-06 73.657 -5.22436e-06C 35.3313 -5.22436e-06 3.80874 29.1042 -2.47103e-06 66.4038C 4.09992 66.5189 7.39326 69.8727 7.39326 74C 7.39326 78.1273 4.09992 81.4811 -2.47103e-06 81.5978C 3.80718 118.896 35.3297 148 73.657 148C 111.979 148 143.5 118.899 147.311 81.6025C 147.27 81.6025 147.238 81.6087 147.199 81.6087Z"/>
<path id="path1_fill" fill-rule="evenodd" d="M 15.2225 7.6087C 15.2225 3.40827 11.8155 -1.13986e-05 7.61281 -1.13986e-05C 3.41012 -1.13986e-05 6.17758e-07 3.40672 6.17758e-07 7.6087C 6.17758e-07 11.8107 3.40856 15.2174 7.61281 15.2174C 11.8171 15.2174 15.2225 11.8107 15.2225 7.6087Z"/>
<path id="path2_fill" fill-rule="evenodd" d="M 15.2256 7.6087C 15.2256 3.40827 11.8171 -1.13986e-05 7.61281 -1.13986e-05C 3.40856 -1.13986e-05 -2.94623e-06 3.40672 -2.94623e-06 7.6087C -2.94623e-06 11.8107 3.40856 15.2174 7.61281 15.2174C 11.8171 15.2174 15.2256 11.8107 15.2256 7.6087Z"/>
<path id="path3_fill" d="M 48.311 36.4643C 49.827 36.4643 51.2332 35.8771 52.2951 34.8113C 53.357 33.7454 53.9428 32.3314 53.9428 30.8321L 53.9428 5.64588C 53.9428 2.53208 51.4089 -6.16201e-05 48.2959 -6.16201e-05L 5.64702 -6.16201e-05C 2.53267 -6.16201e-05 -1.67476e-05 2.53345 -1.67476e-05 5.64588L -1.67476e-05 30.8321C -1.67476e-05 33.9459 2.53404 36.478 5.64702 36.478L 8.13982 36.478L 8.13982 44.7562C 8.13982 45.7754 8.97539 46.6068 10.003 46.6068C 10.5353 46.6068 11.047 46.371 11.4051 45.9581L 19.6081 36.4643L 48.311 36.4643L 48.311 36.4643ZM 18.3336 34.7744L 10.1868 44.1859L 10.1868 35.4395C 10.1868 34.8675 9.72172 34.4027 9.14962 34.4027L 5.64702 34.4027C 3.67002 34.4027 2.06069 32.7937 2.06069 30.817L 2.06069 5.6432C 2.06069 3.66656 3.67002 2.05751 5.64702 2.05751L 48.2959 2.05751C 50.2729 2.05751 51.8822 3.66656 51.8822 5.6432L 51.8822 30.8294C 51.8822 32.806 50.2729 34.4151 48.2959 34.4151L 19.1252 34.4151C 18.8165 34.4178 18.5421 34.5399 18.3336 34.7744Z"/>
<path id="path4_fill" d="M 45.9553 5.64472C 45.9553 2.53092 43.4213 0.000115203 40.3083 0.000115203C 39.7362 0.000115203 39.2711 0.458094 39.2711 1.02187C 39.2711 1.59388 39.7362 2.06037 40.3083 2.06037C 42.2853 2.06037 43.8946 3.66807 43.8946 5.64472L 43.8946 30.8319C 43.8946 32.8086 42.2853 34.4176 40.3083 34.4176L 36.7919 34.4176C 36.2198 34.4176 35.7547 34.8828 35.7547 35.4548L 35.7547 44.2021L 27.6012 34.7826C 27.4091 34.5577 27.1251 34.4313 26.8178 34.4313L 1.0372 34.4313C 0.465092 34.4313 2.21068e-05 34.8965 2.21068e-05 35.4685C 2.21068e-05 36.0405 0.465092 36.507 1.0372 36.507L 26.3458 36.507L 34.5652 45.9731C 35.0578 46.5519 35.8672 46.7742 36.6053 46.4972C 37.3517 46.2173 37.8154 45.5506 37.8154 44.7564L 37.8154 36.4782L 40.3083 36.4782C 43.4227 36.4782 45.9553 33.9443 45.9553 30.8319L 45.9553 5.64472L 45.9553 5.64472Z"/>
<path id="path5_fill" d="M 1.35959 2.71878C 2.11049 2.71878 2.71925 2.11022 2.71925 1.35946C 2.71925 0.608697 2.11049 0.000131278 1.35959 0.000131278C 0.608699 0.000131278 2.41165e-05 0.608697 2.41165e-05 1.35946C 2.41165e-05 2.11022 0.608699 2.71878 1.35959 2.71878Z"/>
<path id="path6_fill" d="M 1.35962 2.71878C 2.11052 2.71878 2.71919 2.11022 2.71919 1.35946C 2.71919 0.608697 2.11052 0.000131278 1.35962 0.000131278C 0.608725 0.000131278 -3.41651e-05 0.608697 -3.41651e-05 1.35946C -3.41651e-05 2.11022 0.608725 2.71878 1.35962 2.71878Z"/>
<path id="path7_fill" d="M 1.35965 2.71878C 2.11055 2.71878 2.71922 2.11022 2.71922 1.35946C 2.71922 0.608697 2.11055 0.000131278 1.35965 0.000131278C 0.608758 0.000131278 0 0.608697 0 1.35946C 0 2.11022 0.608758 2.71878 1.35965 2.71878Z"/>
</defs>
</svg>
