<svg width="218" height="148" viewBox="0 0 218 148" version="1.1" xmlns="http://www.w3.org/2000/svg" xmlns:xlink="http://www.w3.org/1999/xlink">
<title>3</title>
<desc>Created using Figma</desc>
<g id="Canvas" transform="translate(-3770 -5243)">
<g id="3">
<g id="Group 2.11">
<g id="Vector">
<use xlink:href="#path0_fill" transform="translate(3805.51 5243)" fill="#C11235"/>
</g>
<g id="Vector">
<use xlink:href="#path1_fill" transform="translate(3972.78 5309.39)" fill="#C11235"/>
</g>
<g id="Vector">
<use xlink:href="#path2_fill" transform="translate(3770 5309.39)" fill="#C11235"/>
</g>
</g>
<g id="Vector">
<use xlink:href="#path3_fill" transform="translate(3845 5267)" fill="#FFFFFF"/>
</g>
<g id="Vector">
<use xlink:href="#path4_fill" transform="translate(3855.72 5335.04)" fill="#FFFFFF"/>
</g>
<g id="Vector">
<use xlink:href="#path5_fill" transform="translate(3876.66 5342.05)" fill="#FFFFFF"/>
</g>
<g id="Vector">
<use xlink:href="#path6_fill" transform="translate(3856.29 5278.31)" fill="#FFFFFF"/>
</g>
<g id="Vector">
<use xlink:href="#path7_fill" transform="translate(3882.88 5278.31)" fill="#FFFFFF"/>
</g>
<g id="Vector">
<use xlink:href="#path8_fill" transform="translate(3871.38 5286.42)" fill="#FFFFFF"/>
</g>
<g id="Vector">
<use xlink:href="#path9_fill" transform="translate(3855.44 5301.32)" fill="#FFFFFF"/>
</g>
<g id="Vector">
<use xlink:href="#path10_fill" transform="translate(3855.44 5307.73)" fill="#FFFFFF"/>
</g>
<g id="Vector">
<use xlink:href="#path11_fill" transform="translate(3855.44 5314.71)" fill="#FFFFFF"/>
</g>
<g id="Vector">
<use xlink:href="#path12_fill" transform="translate(3898.35 5321.12)" fill="#FFFFFF"/>
</g>
<g id="Vector">
<use xlink:href="#path13_fill" transform="translate(3855.44 5321.12)" fill="#FFFFFF"/>
</g>
</g>
</g>
<defs>
<path id="path0_fill" fill-rule="evenodd" d="M 147.199 81.6087C 142.996 81.6087 139.586 78.202 139.586 74C 139.586 69.798 142.994 66.3913 147.199 66.3913C 147.238 66.3913 147.272 66.3975 147.311 66.3975C 143.5 29.1011 111.981 -5.22436e-06 73.657 -5.22436e-06C 35.3313 -5.22436e-06 3.80874 29.1042 -2.47103e-06 66.4038C 4.09992 66.5189 7.39326 69.8727 7.39326 74C 7.39326 78.1273 4.09992 81.4811 -2.47103e-06 81.5978C 3.80718 118.896 35.3297 148 73.657 148C 111.979 148 143.5 118.899 147.311 81.6025C 147.27 81.6025 147.238 81.6087 147.199 81.6087Z"/>
<path id="path1_fill" fill-rule="evenodd" d="M 15.2225 7.6087C 15.2225 3.40827 11.8155 -1.13986e-05 7.61281 -1.13986e-05C 3.41012 -1.13986e-05 6.17758e-07 3.40672 6.17758e-07 7.6087C 6.17758e-07 11.8107 3.40856 15.2174 7.61281 15.2174C 11.8171 15.2174 15.2225 11.8107 15.2225 7.6087Z"/>
<path id="path2_fill" fill-rule="evenodd" d="M 15.2256 7.6087C 15.2256 3.40827 11.8171 -1.13986e-05 7.61281 -1.13986e-05C 3.40856 -1.13986e-05 -2.94623e-06 3.40672 -2.94623e-06 7.6087C -2.94623e-06 11.8107 3.40856 15.2174 7.61281 15.2174C 11.8171 15.2174 15.2256 11.8107 15.2256 7.6087Z"/>
<path id="path3_fill" d="M 67.2261 76.561L 67.2261 1.20035C 67.2261 0.539184 66.687 9.9128e-05 66.0257 9.9128e-05L 1.20049 9.9128e-05C 0.539202 9.9128e-05 2.0767e-05 0.539184 2.0767e-05 1.20035L 2.0767e-05 92.093C 2.0767e-05 92.7542 0.539202 93.2932 1.20049 93.2932L 50.4938 93.2932C 50.808 93.2932 51.1179 93.1642 51.3416 92.9406L 66.875 77.4113C 67.1027 77.1836 67.2261 76.8834 67.2261 76.561ZM 51.6914 89.1972L 51.6819 77.7476L 63.1309 77.76L 51.6914 89.1972ZM 64.8267 75.3608L 50.4814 75.3484C 50.1604 75.3484 49.8572 75.4733 49.6294 75.701C 49.4086 75.9233 49.2796 76.2331 49.2796 76.55L 49.292 90.8914L 2.39953 90.8914L 2.39953 2.39926L 64.8267 2.39926L 64.8267 75.3608Z"/>
<path id="path4_fill" d="M 13.5098 2.32107C 12.013 0.823151 10.0264 -6.96575e-05 7.91491 -6.96575e-05C 3.55069 -6.96575e-05 -8.03885e-06 3.54996 -8.03885e-06 7.91476C -8.03885e-06 12.2796 3.55069 15.8296 7.91491 15.8296C 12.2805 15.8296 15.8312 12.2796 15.8312 7.91476C 15.8312 5.80369 15.0066 3.81761 13.5098 2.32107ZM 7.91491 13.4291C 4.87327 13.4291 2.39959 10.9545 2.39959 7.91342C 2.39959 4.87233 4.87327 2.39776 7.91491 2.39776C 10.9566 2.39776 13.4316 4.87233 13.4316 7.91342C 13.4316 10.9545 10.9566 13.4291 7.91491 13.4291Z"/>
<path id="path5_fill" d="M 11.5738 -8.30532e-05L 1.20051 -8.30532e-05C 0.539219 -8.30532e-05 3.75146e-05 0.539002 3.75146e-05 1.20017C 3.75146e-05 1.86134 0.539219 2.40042 1.20051 2.40042L 11.5738 2.40042C 12.2351 2.40042 12.7743 1.86134 12.7743 1.20017C 12.7743 0.539002 12.2351 -8.30532e-05 11.5738 -8.30532e-05Z"/>
<path id="path6_fill" d="M 6.66917 0.000131278L 1.20041 0.000131278C 0.539124 0.000131278 -5.76118e-05 0.537876 -5.76118e-05 1.19904C -5.76118e-05 1.86021 0.539124 2.3993 1.20041 2.3993L 6.66917 2.3993C 7.33046 2.3993 7.86964 1.86021 7.86964 1.19904C 7.86964 0.537876 7.33183 0.000131278 6.66917 0.000131278Z"/>
<path id="path7_fill" d="M 17.6077 0.000131278L 1.19912 0.000131278C 0.53783 0.000131278 -1.20583e-05 0.537876 -1.20583e-05 1.19904C -1.20583e-05 1.86021 0.53783 2.3993 1.19912 2.3993L 17.6077 2.3993C 18.269 2.3993 18.8082 1.86021 18.8082 1.19904C 18.8082 0.537876 18.269 0.000131278 17.6077 0.000131278Z"/>
<path id="path8_fill" d="M 29.113 -2.14331e-05L 1.19914 -2.14331e-05C 0.537849 -2.14331e-05 6.69904e-06 0.539063 6.69904e-06 1.20023C 6.69904e-06 1.8614 0.537849 2.39914 1.19914 2.39914L 29.113 2.39914C 29.7743 2.39914 30.3135 1.8614 30.3135 1.20023C 30.3135 0.539063 29.7743 -2.14331e-05 29.113 -2.14331e-05Z"/>
<path id="path9_fill" d="M 45.1458 0.000125919L 1.20038 0.000125919C 0.539099 0.000125919 -8.30681e-05 0.537871 -8.30681e-05 1.19904C -8.30681e-05 1.86021 0.539099 2.39929 1.20038 2.39929L 45.1458 2.39929C 45.807 2.39929 46.3449 1.86021 46.3449 1.19904C 46.3449 0.537871 45.807 0.000125919 45.1458 0.000125919Z"/>
<path id="path10_fill" d="M 45.1458 -0.000109844L 1.20038 -0.000109844C 0.539099 -0.000109844 -8.30681e-05 0.538975 -8.30681e-05 1.20014C -8.30681e-05 1.86131 0.539099 2.39905 1.20038 2.39905L 45.1458 2.39905C 45.807 2.39905 46.3449 1.86131 46.3449 1.20014C 46.3449 0.538975 45.807 -0.000109844 45.1458 -0.000109844Z"/>
<path id="path11_fill" d="M 45.1458 0.000107165L 1.20038 0.000107165C 0.539099 0.000107165 -8.30681e-05 0.537852 -8.30681e-05 1.19902C -8.30681e-05 1.86019 0.539099 2.39927 1.20038 2.39927L 45.1458 2.39927C 45.807 2.39927 46.3449 1.86019 46.3449 1.19902C 46.3449 0.537852 45.807 0.000107165 45.1458 0.000107165Z"/>
<path id="path12_fill" d="M 2.2376 -0.000128598L 1.19908 -0.000128598C 0.537792 -0.000128598 -4.95729e-05 0.537616 -4.95729e-05 1.19878C -4.95729e-05 1.85995 0.537792 2.39904 1.19908 2.39904L 2.2376 2.39904C 2.89888 2.39904 3.43673 1.85995 3.43673 1.19878C 3.43673 0.537616 2.89888 -0.000128598 2.2376 -0.000128598Z"/>
<path id="path13_fill" d="M 37.5082 -0.000128598L 1.20039 -0.000128598C 0.539099 -0.000128598 -8.30681e-05 0.537616 -8.30681e-05 1.19878C -8.30681e-05 1.85995 0.539099 2.39904 1.20039 2.39904L 37.5082 2.39904C 38.1695 2.39904 38.7071 1.85995 38.7071 1.19878C 38.7071 0.537616 38.1695 -0.000128598 37.5082 -0.000128598Z"/>
</defs>
</svg>
