<svg width="218" height="148" viewBox="0 0 218 148" version="1.1" xmlns="http://www.w3.org/2000/svg" xmlns:xlink="http://www.w3.org/1999/xlink">
<title>2</title>
<desc>Created using Figma</desc>
<g id="Canvas" transform="translate(-3472 -5243)">
<g id="2">
<g id="Group 2.10">
<g id="Vector">
<use xlink:href="#path0_fill" transform="translate(3507.51 5243)" fill="#C11235"/>
</g>
<g id="Vector">
<use xlink:href="#path1_fill" transform="translate(3674.78 5309.39)" fill="#C11235"/>
</g>
<g id="Vector">
<use xlink:href="#path2_fill" transform="translate(3472 5309.39)" fill="#C11235"/>
</g>
</g>
<g id="Vector">
<use xlink:href="#path3_fill" transform="translate(3547 5337.52)" fill="#FFFFFF"/>
</g>
<g id="Vector">
<use xlink:href="#path4_fill" transform="translate(3603.77 5337.53)" fill="#FFFFFF"/>
</g>
<g id="Vector">
<use xlink:href="#path5_fill" transform="translate(3547.43 5283)" fill="#FFFFFF"/>
</g>
<g id="Vector">
<use xlink:href="#path6_fill" transform="translate(3574.38 5294.93)" fill="#FFFFFF"/>
</g>
<g id="Vector">
<use xlink:href="#path7_fill" transform="translate(3569.16 5294.93)" fill="#FFFFFF"/>
</g>
<g id="Vector">
<use xlink:href="#path8_fill" transform="translate(3563.83 5294.93)" fill="#FFFFFF"/>
</g>
<g id="Vector">
<use xlink:href="#path9_fill" transform="translate(3558.61 5294.93)" fill="#FFFFFF"/>
</g>
<g id="Vector">
<use xlink:href="#path10_fill" transform="translate(3558.61 5301.74)" fill="#FFFFFF"/>
</g>
<g id="Vector">
<use xlink:href="#path11_fill" transform="translate(3558.61 5307.6)" fill="#FFFFFF"/>
</g>
<g id="Group">
<g id="Vector">
<use xlink:href="#path12_fill" transform="translate(3558.61 5313.35)" fill="#FFFFFF"/>
</g>
<g id="Vector">
<use xlink:href="#path13_fill" transform="translate(3584.82 5316.55)" fill="#FFFFFF"/>
</g>
</g>
</g>
</g>
<defs>
<path id="path0_fill" fill-rule="evenodd" d="M 147.199 81.6087C 142.996 81.6087 139.586 78.202 139.586 74C 139.586 69.798 142.994 66.3913 147.199 66.3913C 147.238 66.3913 147.272 66.3975 147.311 66.3975C 143.5 29.1011 111.981 -5.22436e-06 73.657 -5.22436e-06C 35.3313 -5.22436e-06 3.80874 29.1042 -2.47103e-06 66.4038C 4.09992 66.5189 7.39326 69.8727 7.39326 74C 7.39326 78.1273 4.09992 81.4811 -2.47103e-06 81.5978C 3.80718 118.896 35.3297 148 73.657 148C 111.979 148 143.5 118.899 147.311 81.6025C 147.27 81.6025 147.238 81.6087 147.199 81.6087Z"/>
<path id="path1_fill" fill-rule="evenodd" d="M 15.2225 7.6087C 15.2225 3.40827 11.8155 -1.13986e-05 7.61281 -1.13986e-05C 3.41012 -1.13986e-05 6.17758e-07 3.40672 6.17758e-07 7.6087C 6.17758e-07 11.8107 3.40856 15.2174 7.61281 15.2174C 11.8171 15.2174 15.2225 11.8107 15.2225 7.6087Z"/>
<path id="path2_fill" fill-rule="evenodd" d="M 15.2256 7.6087C 15.2256 3.40827 11.8171 -1.13986e-05 7.61281 -1.13986e-05C 3.40856 -1.13986e-05 -2.94623e-06 3.40672 -2.94623e-06 7.6087C -2.94623e-06 11.8107 3.40856 15.2174 7.61281 15.2174C 11.8171 15.2174 15.2256 11.8107 15.2256 7.6087Z"/>
<path id="path3_fill" d="M 58.9052 13.6334L 7.56363 13.6334L -3.34952e-06 6.81732L 7.56363 -7.50158e-05L 59.0123 -7.50158e-05L 59.0123 13.632L 58.9052 13.632L 58.9052 13.6334ZM 8.30865 11.5045L 56.7746 11.5045L 56.7746 2.13151L 8.30865 2.13151L 3.08968 6.81866L 8.30865 11.5045Z"/>
<path id="path4_fill" d="M 8.6283 13.632L 2.27767e-05 13.632L 2.27767e-05 -0.000107165L 8.6283 -0.000107165C 10.4393 -0.000107165 11.8236 1.38543 11.8236 3.1961L 11.8236 10.4375C 11.8249 12.2495 10.4407 13.632 8.6283 13.632ZM 2.13065 11.5031L 8.6283 11.5031C 9.26764 11.5031 9.69295 11.0767 9.69295 10.4388L 9.69295 3.19744C 9.69295 2.55685 9.26627 2.13181 8.6283 2.13181L 2.13065 2.13181L 2.13065 11.5031Z"/>
<path id="path5_fill" d="M 46.548 25.9681L 46.548 12.0342L 55.9213 12.0342L 55.9213 5.75032C 55.9213 2.55559 53.3653 -0.000107165 50.17 -0.000107165L 5.75131 -0.000107165C 2.556 -0.000107165 1.27282e-05 2.55559 1.27282e-05 5.75032L 1.27282e-05 50.0552L 37.1103 50.0552C 39.3452 51.7163 42.0932 52.7165 45.058 52.7165C 52.5146 52.7165 58.4785 46.6453 58.4785 39.2984C 58.4772 32.4522 53.2088 26.7211 46.548 25.9681ZM 53.7905 5.74898L 53.7905 9.90231L 46.548 9.90231L 46.548 5.74898C 46.548 3.7257 48.1449 2.12746 50.17 2.12746C 52.195 2.12746 53.7905 3.72707 53.7905 5.74898ZM 2.1293 5.74898C 2.1293 3.7257 3.83331 2.12746 5.85832 2.12746L 45.696 2.12746C 45.6562 2.17821 45.6246 2.24007 45.5862 2.29357C 45.4573 2.46366 45.342 2.64056 45.2336 2.82437C 45.1952 2.89021 45.1596 2.95876 45.1239 3.02597C 44.9991 3.25779 44.8852 3.49366 44.7932 3.74331C 44.7672 3.80778 44.7548 3.87774 44.7315 3.94358C 44.6492 4.19049 44.5709 4.43475 44.5229 4.69675C 44.4571 5.03831 44.4187 5.38959 44.4187 5.74898L 44.4187 12.0326L 44.4187 25.9091C 37.3599 26.2521 31.6375 32.1642 31.6375 39.2971C 31.6375 42.5686 32.8448 45.5807 34.8273 47.9222L 2.13064 47.9222L 2.13064 5.74898L 2.1293 5.74898ZM 45.0567 50.5863C 38.8787 50.5863 33.7668 45.4739 33.7668 39.2984C 33.7668 33.1202 38.8801 28.0092 45.0567 28.0092C 51.3416 28.0092 56.3466 33.1216 56.3466 39.2984C 56.3466 45.4739 51.2346 50.5863 45.0567 50.5863Z"/>
<path id="path6_fill" d="M 2.13068 1.87539e-05L -3.14855e-05 1.87539e-05L -3.14855e-05 2.13026L 2.13068 2.13026L 2.13068 1.87539e-05Z"/>
<path id="path7_fill" d="M 2.13066 1.87539e-05L 3.01457e-05 1.87539e-05L 3.01457e-05 2.13026L 2.13066 2.13026L 2.13066 1.87539e-05Z"/>
<path id="path8_fill" d="M 2.13201 1.87539e-05L 3.61748e-05 1.87539e-05L 3.61748e-05 2.13026L 2.13201 2.13026L 2.13201 1.87539e-05Z"/>
<path id="path9_fill" d="M 2.13064 1.87539e-05L 1.4068e-05 1.87539e-05L 1.4068e-05 2.13026L 2.13064 2.13026L 2.13064 1.87539e-05Z"/>
<path id="path10_fill" d="M 17.8945 -2.14331e-05L 1.4068e-05 -2.14331e-05L 1.4068e-05 2.13022L 17.8945 2.13022L 17.8945 -2.14331e-05Z"/>
<path id="path11_fill" d="M 17.8945 5.35827e-06L 1.4068e-05 5.35827e-06L 1.4068e-05 2.13025L 17.8945 2.13025L 17.8945 5.35827e-06Z"/>
<path id="path12_fill" d="M 17.8945 -0.000139315L 1.4068e-05 -0.000139315L 1.4068e-05 2.13044L 17.8945 2.13044L 17.8945 -0.000139315Z"/>
<path id="path13_fill" d="M 4.15297 12.4607L -1.94272e-05 5.53777L 1.918 4.47449L 4.57961 9.05346L 13.7402 0L 15.2329 1.49228L 4.15297 12.4607Z"/>
</defs>
</svg>
