<svg width="218" height="148" viewBox="0 0 218 148" version="1.1" xmlns="http://www.w3.org/2000/svg" xmlns:xlink="http://www.w3.org/1999/xlink">
<title>7</title>
<desc>Created using Figma</desc>
<g id="Canvas" transform="translate(-3770 -5485)">
<g id="7">
<g id="Group 2.15">
<g id="Vector">
<use xlink:href="#path0_fill" transform="translate(3805.51 5485)" fill="#C11235"/>
</g>
<g id="Vector">
<use xlink:href="#path1_fill" transform="translate(3972.78 5551.39)" fill="#C11235"/>
</g>
<g id="Vector">
<use xlink:href="#path2_fill" transform="translate(3770 5551.39)" fill="#C11235"/>
</g>
</g>
<g id="Vector">
<use xlink:href="#path3_fill" transform="translate(3845 5523)" fill="#FFFFFF"/>
</g>
</g>
</g>
<defs>
<path id="path0_fill" fill-rule="evenodd" d="M 147.199 81.6087C 142.996 81.6087 139.586 78.202 139.586 74C 139.586 69.798 142.994 66.3913 147.199 66.3913C 147.238 66.3913 147.272 66.3975 147.311 66.3975C 143.5 29.1011 111.981 -5.22436e-06 73.657 -5.22436e-06C 35.3313 -5.22436e-06 3.80874 29.1042 -2.47103e-06 66.4038C 4.09992 66.5189 7.39326 69.8727 7.39326 74C 7.39326 78.1273 4.09992 81.4811 -2.47103e-06 81.5978C 3.80718 118.896 35.3297 148 73.657 148C 111.979 148 143.5 118.899 147.311 81.6025C 147.27 81.6025 147.238 81.6087 147.199 81.6087Z"/>
<path id="path1_fill" fill-rule="evenodd" d="M 15.2225 7.6087C 15.2225 3.40827 11.8155 -1.13986e-05 7.61281 -1.13986e-05C 3.41012 -1.13986e-05 6.17758e-07 3.40672 6.17758e-07 7.6087C 6.17758e-07 11.8107 3.40856 15.2174 7.61281 15.2174C 11.8171 15.2174 15.2225 11.8107 15.2225 7.6087Z"/>
<path id="path2_fill" fill-rule="evenodd" d="M 15.2256 7.6087C 15.2256 3.40827 11.8171 -1.13986e-05 7.61281 -1.13986e-05C 3.40856 -1.13986e-05 -2.94623e-06 3.40672 -2.94623e-06 7.6087C -2.94623e-06 11.8107 3.40856 15.2174 7.61281 15.2174C 11.8171 15.2174 15.2256 11.8107 15.2256 7.6087Z"/>
<path id="path3_fill" d="M 43.9303 66.8699L 44.3761 66.8053C 45.8798 66.5913 48.1395 66.0618 50.3621 64.7628C 53.4792 62.9384 57.3042 59.1388 57.8077 51.4009L 57.8461 50.7988L 58.4498 50.7616C 63.3724 50.4598 67.2276 46.3599 67.2276 41.4272L 67.2276 37.0458C 67.2427 32.135 63.419 28.0433 58.5225 27.7264L 57.8804 27.6852L 57.8804 24.2382C 57.8804 17.7116 55.5728 11.6362 51.3842 7.13426C 47.1091 2.53352 41.2138 6.16201e-05 34.7861 6.16201e-05L 32.4716 6.16201e-05C 26.044 6.16201e-05 20.1501 2.53352 15.8737 7.13426C 11.6837 11.6362 9.37734 17.7116 9.37734 24.2382L 9.37734 27.6839L 8.73666 27.7264C 3.83875 28.0556 2.27767e-05 32.1573 2.27767e-05 37.0625L 2.27767e-05 41.4422C 2.27767e-05 46.5972 4.19549 50.7904 9.34996 50.7904L 15.0038 50.7904C 15.639 50.7904 16.1563 50.2735 16.1563 49.6384L 16.1563 28.85C 16.1563 28.2135 15.639 27.6963 15.0038 27.6963L 11.6822 27.6963L 11.6822 24.2382C 11.6822 11.7336 20.6138 2.30445 32.4565 2.30445L 34.7711 2.30445C 46.6138 2.30445 55.5453 11.7336 55.5453 24.2382L 55.5453 27.6963L 52.2224 27.6963C 51.5872 27.6963 51.07 28.2135 51.07 28.85L 51.07 49.6233C 51.07 50.2598 51.5872 50.7767 52.2224 50.7767L 55.5398 50.7767L 55.4808 51.5161C 54.6851 61.6874 47.529 63.9536 44.4887 64.457L 43.9069 64.5531L 43.7245 63.9918C 42.9493 61.6092 40.7418 60.0086 38.2325 60.0086L 33.6351 60.0086C 30.4576 60.0086 27.8715 62.5942 27.8715 65.7711C 27.8715 68.9576 30.4576 71.55 33.6351 71.55L 38.2475 71.55C 40.8337 71.55 43.1194 69.8052 43.8067 67.3046L 43.9303 66.8699ZM 13.8856 30.0007L 13.8856 48.4696L 9.38563 48.4696C 5.5016 48.4696 2.34058 45.3092 2.34058 41.4258L 2.34058 37.0444C 2.34058 33.1611 5.5016 30.0007 9.38563 30.0007L 13.8856 30.0007L 13.8856 30.0007ZM 53.3927 48.4696L 53.3927 30.0007L 57.8941 30.0007C 61.7782 30.0007 64.9392 33.1611 64.9392 37.0444L 64.9392 41.4258C 64.9392 45.3092 61.7782 48.4696 57.8941 48.4696L 53.3927 48.4696L 53.3927 48.4696ZM 38.2517 69.2443L 33.6393 69.2443C 31.7309 69.2443 30.1805 67.6929 30.1805 65.7862C 30.1805 63.8795 31.7322 62.3281 33.6393 62.3281L 38.2517 62.3281C 40.1601 62.3281 41.7104 63.8795 41.7104 65.7862C 41.7104 67.6929 40.1601 69.2443 38.2517 69.2443Z"/>
</defs>
</svg>
