<svg width="218" height="148" viewBox="0 0 218 148" version="1.1" xmlns="http://www.w3.org/2000/svg" xmlns:xlink="http://www.w3.org/1999/xlink">
<title>5</title>
<desc>Created using Figma</desc>
<g id="Canvas" transform="translate(-3115 -5485)">
<g id="5">
<g id="Group 2.13">
<g id="Vector">
<use xlink:href="#path0_fill" transform="translate(3150.51 5485)" fill="#C11235"/>
</g>
<g id="Vector">
<use xlink:href="#path1_fill" transform="translate(3317.78 5551.39)" fill="#C11235"/>
</g>
<g id="Vector">
<use xlink:href="#path2_fill" transform="translate(3115 5551.39)" fill="#C11235"/>
</g>
</g>
<g id="Vector">
<use xlink:href="#path3_fill" transform="translate(3190 5525)" fill="#FFFFFF"/>
</g>
<g id="Vector">
<use xlink:href="#path4_fill" transform="translate(3208.06 5562.1)" fill="#FFFFFF"/>
</g>
<g id="Vector">
<use xlink:href="#path5_fill" transform="translate(3233.91 5562.1)" fill="#FFFFFF"/>
</g>
<g id="Vector">
<use xlink:href="#path6_fill" transform="translate(3220.09 5562.1)" fill="#FFFFFF"/>
</g>
</g>
</g>
<defs>
<path id="path0_fill" fill-rule="evenodd" d="M 147.199 81.6087C 142.996 81.6087 139.586 78.202 139.586 74C 139.586 69.798 142.994 66.3913 147.199 66.3913C 147.238 66.3913 147.272 66.3975 147.311 66.3975C 143.5 29.1011 111.981 -5.22436e-06 73.657 -5.22436e-06C 35.3313 -5.22436e-06 3.80874 29.1042 -2.47103e-06 66.4038C 4.09992 66.5189 7.39326 69.8727 7.39326 74C 7.39326 78.1273 4.09992 81.4811 -2.47103e-06 81.5978C 3.80718 118.896 35.3297 148 73.657 148C 111.979 148 143.5 118.899 147.311 81.6025C 147.27 81.6025 147.238 81.6087 147.199 81.6087Z"/>
<path id="path1_fill" fill-rule="evenodd" d="M 15.2225 7.6087C 15.2225 3.40827 11.8155 -1.13986e-05 7.61281 -1.13986e-05C 3.41012 -1.13986e-05 6.17758e-07 3.40672 6.17758e-07 7.6087C 6.17758e-07 11.8107 3.40856 15.2174 7.61281 15.2174C 11.8171 15.2174 15.2225 11.8107 15.2225 7.6087Z"/>
<path id="path2_fill" fill-rule="evenodd" d="M 15.2256 7.6087C 15.2256 3.40827 11.8171 -1.13986e-05 7.61281 -1.13986e-05C 3.40856 -1.13986e-05 -2.94623e-06 3.40672 -2.94623e-06 7.6087C -2.94623e-06 11.8107 3.40856 15.2174 7.61281 15.2174C 11.8171 15.2174 15.2256 11.8107 15.2256 7.6087Z"/>
<path id="path3_fill" d="M 67.8051 30.6401C 67.7516 30.5221 67.6913 30.4288 67.6213 30.3547L 59.3415 22.0735L 59.3415 13.9504C 59.3429 13.9778 59.3279 13.9409 59.3237 13.8901C 59.3169 13.7872 59.2977 13.6937 59.2675 13.6004L 59.2318 13.502C 59.1687 13.3634 59.1014 13.2617 59.0219 13.1821L 46.1597 0.322303C 46.0788 0.241371 45.9745 0.174117 45.8387 0.109646L 45.744 0.0781664C 45.6521 0.0466169 45.5574 0.0274236 45.4559 0.020565L 45.3448 0.000136636L 9.66685 0.0054949C 9.06731 0.0054949 8.58027 0.492444 8.58027 1.09188L 8.58027 22.0752L 0.323786 30.3299C 0.241468 30.4122 0.177017 30.511 0.115278 30.6441L 0.079606 30.7469C 0.0480509 30.8402 0.0287898 30.9336 0.0246739 31.0269L -2.88059e-05 31.1504L 0.0054979 58.2472C 0.0054979 58.8466 0.492534 59.3336 1.09208 59.3336L 8.58027 59.3336L 8.58027 66.8218C 8.58027 67.4212 9.06731 67.9068 9.66685 67.9068L 58.2563 67.9068C 58.8559 67.9068 59.3429 67.4212 59.3429 66.8218L 59.3429 59.3336L 66.8311 59.3336C 67.4307 59.3336 67.9177 58.8466 67.9177 58.2472L 67.9177 31.0995C 67.9191 31.127 67.904 31.09 67.8999 31.0379C 67.893 30.9309 67.8738 30.8375 67.8422 30.7455L 68.118 30.4987L 67.8051 30.6401ZM 59.3415 25.1448L 64.2079 30.0105L 59.3415 30.0105L 59.3415 25.1448ZM 46.4793 3.71174L 55.6332 12.864L 46.4793 12.864L 46.4793 3.71174ZM 10.7507 2.17559L 44.3076 2.17559L 44.3076 13.9504C 44.3076 14.5498 44.7932 15.0354 45.3928 15.0354L 57.1697 15.0354L 57.1697 30.0105L 10.7507 30.0105L 10.7507 2.17559ZM 8.57885 25.1448L 8.57885 30.0105L 3.7125 30.0105L 8.57885 25.1448ZM 57.1697 65.7327L 10.7507 65.7327L 10.7507 59.3309L 57.1697 59.3309L 57.1697 65.7327L 57.1697 65.7327ZM 65.7445 57.1595L 2.1759 57.1595L 2.1759 32.1832L 65.7445 32.1832L 65.7445 57.1595L 65.7445 57.1595Z"/>
<path id="path4_fill" d="M 8.56238 6.89971C 8.81208 6.28792 8.93837 5.5597 8.93837 4.7353C 8.93837 3.81762 8.79707 3.04941 8.51993 2.45134C 8.24142 1.85053 7.88739 1.36212 7.46483 0.997241C 7.04089 0.635107 6.55939 0.377112 6.02981 0.230339C 5.47691 0.078078 4.9336 -6.69784e-05 4.41911 -6.69784e-05L 5.35923e-06 -6.69784e-05L 5.35923e-06 16.5114L 2.18138 16.5114L 2.18138 9.61434L 4.56456 9.61434C 5.11472 9.61434 5.66346 9.51546 6.19578 9.3193C 6.71301 9.12589 7.17813 8.82702 7.57737 8.42648C 7.9821 8.02731 8.31131 7.51424 8.56238 6.89971ZM 6.10936 7.09328C 5.60722 7.64059 4.95691 7.92046 4.18037 7.92046L 2.18557 7.92046L 2.18557 1.7695L 4.18037 1.7695C 4.95142 1.7695 5.59349 2.01505 6.09563 2.49789C 6.60051 2.98348 6.85706 3.74331 6.85706 4.75975C 6.85569 5.76659 6.60464 6.55282 6.10936 7.09328Z"/>
<path id="path5_fill" d="M 6.65126 7.31126L 2.23081 7.31126L 2.23081 1.93691L 7.01619 1.93691L 7.01619 -9.9128e-05L 2.94758e-05 -9.9128e-05L 2.94758e-05 16.5114L 2.25417 16.5114L 2.25417 9.12738L 6.65126 9.12738L 6.65126 7.31126Z"/>
<path id="path6_fill" d="M 10.368 8.27976C 10.368 5.64744 9.81502 3.57892 8.72568 2.1345C 7.64183 0.698314 6.09013 -9.9128e-05 3.98142 -9.9128e-05L 1.27282e-05 -9.9128e-05L 1.27282e-05 16.5114L 3.95814 16.5114C 6.08468 16.5114 7.64454 15.82 8.72702 14.4002C 9.81499 12.9709 10.368 10.9107 10.368 8.27976ZM 7.85037 10.9971C 7.65418 11.7858 7.37289 12.4564 7.01207 12.99C 6.64164 13.5373 6.19163 13.9544 5.67577 14.2301C 5.15854 14.5058 4.58925 14.6471 3.98284 14.6471L 2.2555 14.6471L 2.2555 1.86558L 3.98284 1.86558C 4.58651 1.86558 5.15583 2.00681 5.67443 2.28252C 6.19029 2.55824 6.63889 2.97534 7.01207 3.52129C 7.37426 4.05626 7.65555 4.72962 7.85037 5.52796C 8.04244 6.31395 8.13985 7.23997 8.13985 8.2811C 8.13985 9.3044 8.04107 10.2193 7.85037 10.9971Z"/>
</defs>
</svg>
