<svg width="218" height="148" viewBox="0 0 218 148" version="1.1" xmlns="http://www.w3.org/2000/svg" xmlns:xlink="http://www.w3.org/1999/xlink">
<title>4</title>
<desc>Created using Figma</desc>
<g id="Canvas" transform="translate(-4061 -5243)">
<g id="4">
<g id="Group 2.12">
<g id="Vector">
<use xlink:href="#path0_fill" transform="translate(4096.51 5243)" fill="#C11235"/>
</g>
<g id="Vector">
<use xlink:href="#path1_fill" transform="translate(4263.78 5309.39)" fill="#C11235"/>
</g>
<g id="Vector">
<use xlink:href="#path2_fill" transform="translate(4061 5309.39)" fill="#C11235"/>
</g>
</g>
<g id="Vector">
<use xlink:href="#path3_fill" transform="translate(4136 5283)" fill="#FFFFFF"/>
<use xlink:href="#path4_stroke" transform="translate(4136 5283)" fill="#FFFFFF"/>
</g>
<g id="Vector">
<use xlink:href="#path5_fill" transform="translate(4166.87 5323.01)" fill="#FFFFFF"/>
<use xlink:href="#path6_stroke" transform="translate(4166.87 5323.01)" fill="#FFFFFF"/>
</g>
<g id="Vector">
<use xlink:href="#path7_fill" transform="translate(4173.73 5328.72)" fill="#FFFFFF"/>
<use xlink:href="#path8_stroke" transform="translate(4173.73 5328.72)" fill="#FFFFFF"/>
</g>
<g id="Vector">
<use xlink:href="#path9_fill" transform="translate(4173.73 5333.3)" fill="#FFFFFF"/>
<use xlink:href="#path10_stroke" transform="translate(4173.73 5333.3)" fill="#FFFFFF"/>
</g>
<g id="Vector">
<use xlink:href="#path11_fill" transform="translate(4173.73 5337.87)" fill="#FFFFFF"/>
<use xlink:href="#path12_stroke" transform="translate(4173.73 5337.87)" fill="#FFFFFF"/>
</g>
</g>
</g>
<defs>
<path id="path0_fill" fill-rule="evenodd" d="M 147.199 81.6087C 142.996 81.6087 139.586 78.202 139.586 74C 139.586 69.798 142.994 66.3913 147.199 66.3913C 147.238 66.3913 147.272 66.3975 147.311 66.3975C 143.5 29.1011 111.981 -5.22436e-06 73.657 -5.22436e-06C 35.3313 -5.22436e-06 3.80874 29.1042 -2.47103e-06 66.4038C 4.09992 66.5189 7.39326 69.8727 7.39326 74C 7.39326 78.1273 4.09992 81.4811 -2.47103e-06 81.5978C 3.80718 118.896 35.3297 148 73.657 148C 111.979 148 143.5 118.899 147.311 81.6025C 147.27 81.6025 147.238 81.6087 147.199 81.6087Z"/>
<path id="path1_fill" fill-rule="evenodd" d="M 15.2225 7.6087C 15.2225 3.40827 11.8155 -1.13986e-05 7.61281 -1.13986e-05C 3.41012 -1.13986e-05 6.17758e-07 3.40672 6.17758e-07 7.6087C 6.17758e-07 11.8107 3.40856 15.2174 7.61281 15.2174C 11.8171 15.2174 15.2225 11.8107 15.2225 7.6087Z"/>
<path id="path2_fill" fill-rule="evenodd" d="M 15.2256 7.6087C 15.2256 3.40827 11.8171 -1.13986e-05 7.61281 -1.13986e-05C 3.40856 -1.13986e-05 -2.94623e-06 3.40672 -2.94623e-06 7.6087C -2.94623e-06 11.8107 3.40856 15.2174 7.61281 15.2174C 11.8171 15.2174 15.2256 11.8107 15.2256 7.6087Z"/>
<path id="path3_fill" d="M 3.42984 9.14511L -7.36894e-05 9.14511L -7.36894e-05 67.8999L 67.9121 67.8999L 67.9121 8.00112L 36.6547 8.00112L 30.9378 -0.000109844L 6.85974 -0.000109844L 6.85974 4.57183L 3.42984 4.57183L 3.42984 9.14511L 3.42984 9.14511ZM 66.311 66.2991L 1.60116 66.2991L 1.60116 10.7446L 23.2548 10.7446L 34.4472 26.378C 34.5968 26.5865 34.8411 26.7115 35.1004 26.7129L 35.4419 26.747L 66.311 26.747L 66.311 66.2991ZM 66.311 25.1476L 35.5352 25.1476L 30.9528 18.7471L 66.3097 18.7471L 66.3097 25.1476L 66.311 25.1476ZM 8.46098 1.60067L 30.1146 1.60067L 35.8302 9.60191L 66.311 9.60191L 66.311 12.5744L 33.2248 12.5744L 27.5079 4.57183L 8.46098 4.57183L 8.46098 1.60067ZM 5.03107 6.17261L 26.6847 6.17261L 32.4003 14.1738L 66.311 14.1738L 66.311 17.1463L 29.8073 17.1463L 24.078 9.14511L 5.03107 9.14511L 5.03107 6.17261Z"/>
<path id="path4_stroke" d="M -7.36894e-05 9.14511L -7.36894e-05 9.02011L -0.125074 9.02011L -0.125074 9.14511L -7.36894e-05 9.14511ZM -7.36894e-05 67.8999L -0.125074 67.8999L -0.125074 68.0249L -7.36894e-05 68.0249L -7.36894e-05 67.8999ZM 67.9121 67.8999L 67.9121 68.0249L 68.0371 68.0249L 68.0371 67.8999L 67.9121 67.8999ZM 67.9121 8.00112L 68.0371 8.00112L 68.0371 7.87612L 67.9121 7.87612L 67.9121 8.00112ZM 36.6547 8.00112L 36.553 8.07379L 36.5904 8.12612L 36.6547 8.12612L 36.6547 8.00112ZM 30.9378 -0.000109844L 31.0395 -0.0727797L 31.0021 -0.12511L 30.9378 -0.12511L 30.9378 -0.000109844ZM 6.85974 -0.000109844L 6.85974 -0.12511L 6.73474 -0.12511L 6.73474 -0.000109844L 6.85974 -0.000109844ZM 6.85974 4.57183L 6.85974 4.69683L 6.98474 4.69683L 6.98474 4.57183L 6.85974 4.57183ZM 3.42984 4.57183L 3.42984 4.44683L 3.30484 4.44683L 3.30484 4.57183L 3.42984 4.57183ZM 66.311 66.2991L 66.311 66.4241L 66.436 66.4241L 66.436 66.2991L 66.311 66.2991ZM 1.60116 66.2991L 1.47616 66.2991L 1.47616 66.4241L 1.60116 66.4241L 1.60116 66.2991ZM 1.60116 10.7446L 1.60116 10.6196L 1.47616 10.6196L 1.47616 10.7446L 1.60116 10.7446ZM 23.2548 10.7446L 23.3564 10.6718L 23.319 10.6196L 23.2548 10.6196L 23.2548 10.7446ZM 34.4472 26.378L 34.3456 26.4507L 34.3457 26.4508L 34.4472 26.378ZM 35.1004 26.7129L 35.1129 26.5879L 35.101 26.5879L 35.1004 26.7129ZM 35.4419 26.747L 35.4294 26.872L 35.4419 26.872L 35.4419 26.747ZM 66.311 26.747L 66.436 26.747L 66.436 26.622L 66.311 26.622L 66.311 26.747ZM 35.5352 25.1476L 35.4335 25.2203L 35.4709 25.2726L 35.5352 25.2726L 35.5352 25.1476ZM 30.9528 18.7471L 30.9528 18.6221L 30.7096 18.6221L 30.8512 18.8199L 30.9528 18.7471ZM 66.3097 18.7471L 66.4347 18.7471L 66.4347 18.6221L 66.3097 18.6221L 66.3097 18.7471ZM 66.3097 25.1476L 66.1847 25.1476L 66.1847 25.2726L 66.3097 25.2726L 66.3097 25.1476ZM 8.46098 1.60067L 8.46098 1.47567L 8.33598 1.47567L 8.33598 1.60067L 8.46098 1.60067ZM 30.1146 1.60067L 30.2163 1.52801L 30.179 1.47567L 30.1146 1.47567L 30.1146 1.60067ZM 35.8302 9.60191L 35.7285 9.67456L 35.7659 9.72691L 35.8302 9.72691L 35.8302 9.60191ZM 66.311 9.60191L 66.436 9.60191L 66.436 9.47691L 66.311 9.47691L 66.311 9.60191ZM 66.311 12.5744L 66.311 12.6994L 66.436 12.6994L 66.436 12.5744L 66.311 12.5744ZM 33.2248 12.5744L 33.1231 12.6471L 33.1605 12.6994L 33.2248 12.6994L 33.2248 12.5744ZM 27.5079 4.57183L 27.6096 4.49917L 27.5722 4.44683L 27.5079 4.44683L 27.5079 4.57183ZM 8.46098 4.57183L 8.33598 4.57183L 8.33598 4.69683L 8.46098 4.69683L 8.46098 4.57183ZM 5.03107 6.17261L 5.03107 6.04761L 4.90607 6.04761L 4.90607 6.17261L 5.03107 6.17261ZM 26.6847 6.17261L 26.7864 6.09996L 26.749 6.04761L 26.6847 6.04761L 26.6847 6.17261ZM 32.4003 14.1738L 32.2986 14.2465L 32.336 14.2988L 32.4003 14.2988L 32.4003 14.1738ZM 66.311 14.1738L 66.436 14.1738L 66.436 14.0488L 66.311 14.0488L 66.311 14.1738ZM 66.311 17.1463L 66.311 17.2713L 66.436 17.2713L 66.436 17.1463L 66.311 17.1463ZM 29.8073 17.1463L 29.7057 17.2191L 29.7431 17.2713L 29.8073 17.2713L 29.8073 17.1463ZM 24.078 9.14511L 24.1796 9.07234L 24.1422 9.02011L 24.078 9.02011L 24.078 9.14511ZM 5.03107 9.14511L 4.90607 9.14511L 4.90607 9.27011L 5.03107 9.27011L 5.03107 9.14511ZM 3.42984 9.02011L -7.36894e-05 9.02011L -7.36894e-05 9.27011L 3.42984 9.27011L 3.42984 9.02011ZM -0.125074 9.14511L -0.125074 67.8999L 0.124926 67.8999L 0.124926 9.14511L -0.125074 9.14511ZM -7.36894e-05 68.0249L 67.9121 68.0249L 67.9121 67.7749L -7.36894e-05 67.7749L -7.36894e-05 68.0249ZM 68.0371 67.8999L 68.0371 8.00112L 67.7871 8.00112L 67.7871 67.8999L 68.0371 67.8999ZM 67.9121 7.87612L 36.6547 7.87612L 36.6547 8.12612L 67.9121 8.12612L 67.9121 7.87612ZM 36.7564 7.92845L 31.0395 -0.0727797L 30.8361 0.07256L 36.553 8.07379L 36.7564 7.92845ZM 30.9378 -0.12511L 6.85974 -0.12511L 6.85974 0.12489L 30.9378 0.12489L 30.9378 -0.12511ZM 6.73474 -0.000109844L 6.73474 4.57183L 6.98474 4.57183L 6.98474 -0.000109844L 6.73474 -0.000109844ZM 6.85974 4.44683L 3.42984 4.44683L 3.42984 4.69683L 6.85974 4.69683L 6.85974 4.44683ZM 3.30484 4.57183L 3.30484 9.14511L 3.55484 9.14511L 3.55484 4.57183L 3.30484 4.57183ZM 66.311 66.1741L 1.60116 66.1741L 1.60116 66.4241L 66.311 66.4241L 66.311 66.1741ZM 1.72616 66.2991L 1.72616 10.7446L 1.47616 10.7446L 1.47616 66.2991L 1.72616 66.2991ZM 1.60116 10.8696L 23.2548 10.8696L 23.2548 10.6196L 1.60116 10.6196L 1.60116 10.8696ZM 23.1532 10.8173L 34.3456 26.4507L 34.5489 26.3052L 23.3564 10.6718L 23.1532 10.8173ZM 34.3457 26.4508C 34.5189 26.6924 34.801 26.8363 35.0997 26.8379L 35.101 26.5879C 34.8812 26.5867 34.6746 26.4806 34.5488 26.3051L 34.3457 26.4508ZM 35.0879 26.8372L 35.4294 26.8714L 35.4543 26.6226L 35.1128 26.5885L 35.0879 26.8372ZM 35.4419 26.872L 66.311 26.872L 66.311 26.622L 35.4419 26.622L 35.4419 26.872ZM 66.186 26.747L 66.186 66.2991L 66.436 66.2991L 66.436 26.747L 66.186 26.747ZM 66.311 25.0226L 35.5352 25.0226L 35.5352 25.2726L 66.311 25.2726L 66.311 25.0226ZM 35.6368 25.0748L 31.0545 18.6744L 30.8512 18.8199L 35.4335 25.2203L 35.6368 25.0748ZM 30.9528 18.8721L 66.3097 18.8721L 66.3097 18.6221L 30.9528 18.6221L 30.9528 18.8721ZM 66.1847 18.7471L 66.1847 25.1476L 66.4347 25.1476L 66.4347 18.7471L 66.1847 18.7471ZM 66.3097 25.2726L 66.311 25.2726L 66.311 25.0226L 66.3097 25.0226L 66.3097 25.2726ZM 8.46098 1.72567L 30.1146 1.72567L 30.1146 1.47567L 8.46098 1.47567L 8.46098 1.72567ZM 30.0129 1.67333L 35.7285 9.67456L 35.932 9.52925L 30.2163 1.52801L 30.0129 1.67333ZM 35.8302 9.72691L 66.311 9.72691L 66.311 9.47691L 35.8302 9.47691L 35.8302 9.72691ZM 66.186 9.60191L 66.186 12.5744L 66.436 12.5744L 66.436 9.60191L 66.186 9.60191ZM 66.311 12.4494L 33.2248 12.4494L 33.2248 12.6994L 66.311 12.6994L 66.311 12.4494ZM 33.3265 12.5017L 27.6096 4.49917L 27.4062 4.64449L 33.1231 12.6471L 33.3265 12.5017ZM 27.5079 4.44683L 8.46098 4.44683L 8.46098 4.69683L 27.5079 4.69683L 27.5079 4.44683ZM 8.58598 4.57183L 8.58598 1.60067L 8.33598 1.60067L 8.33598 4.57183L 8.58598 4.57183ZM 5.03107 6.29761L 26.6847 6.29761L 26.6847 6.04761L 5.03107 6.04761L 5.03107 6.29761ZM 26.583 6.24527L 32.2986 14.2465L 32.5021 14.1012L 26.7864 6.09996L 26.583 6.24527ZM 32.4003 14.2988L 66.311 14.2988L 66.311 14.0488L 32.4003 14.0488L 32.4003 14.2988ZM 66.186 14.1738L 66.186 17.1463L 66.436 17.1463L 66.436 14.1738L 66.186 14.1738ZM 66.311 17.0213L 29.8073 17.0213L 29.8073 17.2713L 66.311 17.2713L 66.311 17.0213ZM 29.9089 17.0736L 24.1796 9.07234L 23.9763 9.21789L 29.7057 17.2191L 29.9089 17.0736ZM 24.078 9.02011L 5.03107 9.02011L 5.03107 9.27011L 24.078 9.27011L 24.078 9.02011ZM 5.15607 9.14511L 5.15607 6.17261L 4.90607 6.17261L 4.90607 9.14511L 5.15607 9.14511Z"/>
<path id="path5_fill" d="M -7.36894e-05 -0.000120561L -7.36894e-05 22.1751L 31.326 22.1751L 31.326 -0.000120561L -7.36894e-05 -0.000120561ZM 29.7264 20.5756L 1.60116 20.5756L 1.60116 1.59932L 29.7264 1.59932L 29.7264 20.5756Z"/>
<path id="path6_stroke" d="M -7.36894e-05 -0.000120561L -7.36894e-05 -0.125121L -0.125074 -0.125121L -0.125074 -0.000120561L -7.36894e-05 -0.000120561ZM -7.36894e-05 22.1751L -0.125074 22.1751L -0.125074 22.3001L -7.36894e-05 22.3001L -7.36894e-05 22.1751ZM 31.326 22.1751L 31.326 22.3001L 31.451 22.3001L 31.451 22.1751L 31.326 22.1751ZM 31.326 -0.000120561L 31.451 -0.000120561L 31.451 -0.125121L 31.326 -0.125121L 31.326 -0.000120561ZM 29.7264 20.5756L 29.7264 20.7006L 29.8514 20.7006L 29.8514 20.5756L 29.7264 20.5756ZM 1.60116 20.5756L 1.47616 20.5756L 1.47616 20.7006L 1.60116 20.7006L 1.60116 20.5756ZM 1.60116 1.59932L 1.60116 1.47432L 1.47616 1.47432L 1.47616 1.59932L 1.60116 1.59932ZM 29.7264 1.59932L 29.8514 1.59932L 29.8514 1.47432L 29.7264 1.47432L 29.7264 1.59932ZM -0.125074 -0.000120561L -0.125074 22.1751L 0.124926 22.1751L 0.124926 -0.000120561L -0.125074 -0.000120561ZM -7.36894e-05 22.3001L 31.326 22.3001L 31.326 22.0501L -7.36894e-05 22.0501L -7.36894e-05 22.3001ZM 31.451 22.1751L 31.451 -0.000120561L 31.201 -0.000120561L 31.201 22.1751L 31.451 22.1751ZM 31.326 -0.125121L -7.36894e-05 -0.125121L -7.36894e-05 0.124879L 31.326 0.124879L 31.326 -0.125121ZM 29.7264 20.4506L 1.60116 20.4506L 1.60116 20.7006L 29.7264 20.7006L 29.7264 20.4506ZM 1.72616 20.5756L 1.72616 1.59932L 1.47616 1.59932L 1.47616 20.5756L 1.72616 20.5756ZM 1.60116 1.72432L 29.7264 1.72432L 29.7264 1.47432L 1.60116 1.47432L 1.60116 1.72432ZM 29.6014 1.59932L 29.6014 20.5756L 29.8514 20.5756L 29.8514 1.59932L 29.6014 1.59932Z"/>
<path id="path7_fill" d="M 10.7465 -9.9128e-05L -7.36895e-05 -9.9128e-05L -7.36895e-05 1.60068L 10.7465 1.60068L 10.7465 -9.9128e-05Z"/>
<path id="path8_stroke" d="M -7.36895e-05 -9.9128e-05L -7.36895e-05 -0.125099L -0.125074 -0.125099L -0.125074 -9.9128e-05L -7.36895e-05 -9.9128e-05ZM 10.7465 -9.9128e-05L 10.8715 -9.9128e-05L 10.8715 -0.125099L 10.7465 -0.125099L 10.7465 -9.9128e-05ZM 10.7465 1.60068L 10.7465 1.72568L 10.8715 1.72568L 10.8715 1.60068L 10.7465 1.60068ZM -7.36895e-05 1.60068L -0.125074 1.60068L -0.125074 1.72568L -7.36895e-05 1.72568L -7.36895e-05 1.60068ZM -7.36895e-05 0.124901L 10.7465 0.124901L 10.7465 -0.125099L -7.36895e-05 -0.125099L -7.36895e-05 0.124901ZM 10.6215 -9.9128e-05L 10.6215 1.60068L 10.8715 1.60068L 10.8715 -9.9128e-05L 10.6215 -9.9128e-05ZM 10.7465 1.47568L -7.36895e-05 1.47568L -7.36895e-05 1.72568L 10.7465 1.72568L 10.7465 1.47568ZM 0.124926 1.60068L 0.124926 -9.9128e-05L -0.125074 -9.9128e-05L -0.125074 1.60068L 0.124926 1.60068Z"/>
<path id="path9_fill" d="M 17.6063 -0.000120561L -7.36894e-05 -0.000120561L -7.36894e-05 1.59932L 17.6063 1.59932L 17.6063 -0.000120561Z"/>
<path id="path10_stroke" d="M -7.36894e-05 -0.000120561L -7.36894e-05 -0.125121L -0.125074 -0.125121L -0.125074 -0.000120561L -7.36894e-05 -0.000120561ZM 17.6063 -0.000120561L 17.7313 -0.000120561L 17.7313 -0.125121L 17.6063 -0.125121L 17.6063 -0.000120561ZM 17.6063 1.59932L 17.6063 1.72432L 17.7313 1.72432L 17.7313 1.59932L 17.6063 1.59932ZM -7.36894e-05 1.59932L -0.125074 1.59932L -0.125074 1.72432L -7.36894e-05 1.72432L -7.36894e-05 1.59932ZM -7.36894e-05 0.124879L 17.6063 0.124879L 17.6063 -0.125121L -7.36894e-05 -0.125121L -7.36894e-05 0.124879ZM 17.4813 -0.000120561L 17.4813 1.59932L 17.7313 1.59932L 17.7313 -0.000120561L 17.4813 -0.000120561ZM 17.6063 1.47432L -7.36894e-05 1.47432L -7.36894e-05 1.72432L 17.6063 1.72432L 17.6063 1.47432ZM 0.124926 1.59932L 0.124926 -0.000120561L -0.125074 -0.000120561L -0.125074 1.59932L 0.124926 1.59932Z"/>
<path id="path11_fill" d="M 17.6063 -0.000109844L -7.36894e-05 -0.000109844L -7.36894e-05 1.60067L 17.6063 1.60067L 17.6063 -0.000109844Z"/>
<path id="path12_stroke" d="M -7.36894e-05 -0.000109844L -7.36894e-05 -0.12511L -0.125074 -0.12511L -0.125074 -0.000109844L -7.36894e-05 -0.000109844ZM 17.6063 -0.000109844L 17.7313 -0.000109844L 17.7313 -0.12511L 17.6063 -0.12511L 17.6063 -0.000109844ZM 17.6063 1.60067L 17.6063 1.72567L 17.7313 1.72567L 17.7313 1.60067L 17.6063 1.60067ZM -7.36894e-05 1.60067L -0.125074 1.60067L -0.125074 1.72567L -7.36894e-05 1.72567L -7.36894e-05 1.60067ZM -7.36894e-05 0.12489L 17.6063 0.12489L 17.6063 -0.12511L -7.36894e-05 -0.12511L -7.36894e-05 0.12489ZM 17.4813 -0.000109844L 17.4813 1.60067L 17.7313 1.60067L 17.7313 -0.000109844L 17.4813 -0.000109844ZM 17.6063 1.47567L -7.36894e-05 1.47567L -7.36894e-05 1.72567L 17.6063 1.72567L 17.6063 1.47567ZM 0.124926 1.60067L 0.124926 -0.000109844L -0.125074 -0.000109844L -0.125074 1.60067L 0.124926 1.60067Z"/>
</defs>
</svg>
